<svg xmlns="http://www.w3.org/2000/svg" xml:space="preserve" style="fill-rule:evenodd;clip-rule:evenodd;stroke-linejoin:round;stroke-miterlimit:2" viewBox="0 0 128 128">
    <path d="M295 9.6h105V90H295z" style="fill:none" transform="matrix(1.02858 0 0 1.34329 -293.432 .104)" />
    <path d="M0 0v234h240V0zm18 18h204v198H18z" style="fill:url(#a)" transform="matrix(.4 0 0 .4 16 17.2)" />
    <path d="M18 18h204v198H18z" style="fill:#241d1b" transform="matrix(.4 0 0 .4 16 17.2)" />
    <path d="M92 62.5c9.4 0 16.9 1.3 20.8 3.3.6.3.7.6.7 1.5v13.5c0 1-.6 1-1 .9-4.9-2.1-11.4-3.7-20-3.7C72.1 77.9 58 90.9 58 112.2c0 26.9 19.3 34.2 34 34.2 8.6 0 16.1-1.8 21.5-4 .6-.3 1 0 1 .9v12.9c0 .9-.2 1.5-1 1.8-5.2 2.7-14.2 4.5-24.6 4.5-25.2 0-49.3-14.3-49.3-49.8 0-28.1 20.5-50.2 52.4-50.2m37 92.4c-.9-.6-1-1.2-1-2.2v-14.1c0-.7.6-1.2 1.2-.7 8.2 5.8 19.4 9.6 29.9 9.6 11.6 0 15.9-5.2 15.9-11 0-6.2-3-9.5-19-16.3-20.3-8.6-27.2-16.2-27.2-30.3 0-14.4 11.7-27.2 34.2-27.2 10.5 0 18.9 2.4 24.1 5.3.6.4.9.9.9 1.8v13.5c0 .6-.6 1-1.3.6-6.4-3.9-15.2-6.8-24-6.8-13.5 0-16 7.1-16 11.1 0 5.3 2.8 9.4 17.7 15.6 23.8 9.8 29 18.3 29 30.9 0 17.1-13.4 27.8-34.9 27.8-10.8-.1-22.2-2.6-29.5-7.6" style="fill:#fff" transform="matrix(.4 0 0 .4 16 17.2)" />
    <defs>
        <linearGradient id="a" x1="0" x2="1" y1="0" y2="0" gradientTransform="matrix(240 0 0 240 0 117)" gradientUnits="userSpaceOnUse">
            <stop offset="0" style="stop-color:#666;stop-opacity:1" />
            <stop offset=".5" style="stop-color:#ccc;stop-opacity:1" />
            <stop offset="1" style="stop-color:#666;stop-opacity:1" />
        </linearGradient>
    </defs>
</svg>