<?xml version="1.0" encoding="UTF-8" standalone="no"?>
<!DOCTYPE svg PUBLIC "-//W3C//DTD SVG 1.1//EN" "http://www.w3.org/Graphics/SVG/1.1/DTD/svg11.dtd">
<svg width="100%" height="100%" viewBox="0 0 128 128" version="1.1" xmlns="http://www.w3.org/2000/svg" xmlns:xlink="http://www.w3.org/1999/xlink" xml:space="preserve" xmlns:serif="http://www.serif.com/" style="fill-rule:evenodd;clip-rule:evenodd;stroke-linejoin:round;stroke-miterlimit:2;">
    <g id="Artboard1" transform="matrix(0.8,0,0,0.795031,-256,36.5714)">
        <rect x="320" y="-46" width="160" height="161" style="fill:none;"/>
        <g transform="matrix(0.557015,0,0,0.560497,339.942,9.00276)">
            <g>
                <g>
                    <path d="M73.95,18.657L45.313,1.657C41.914,-0.369 37.662,-0.369 34.263,1.657L5.627,18.657C2.21,20.686 0.104,24.435 0.104,28.493L0.104,62.49C0.104,66.547 2.21,70.298 5.628,72.327L34.265,89.323C37.664,91.346 41.913,91.346 45.312,89.323L73.949,72.327C77.367,70.297 79.474,66.547 79.474,62.49L79.474,28.493C79.474,24.435 77.367,20.686 73.95,18.657" style="fill:rgb(254,254,254);"/>
                    <path d="M35.266,87.583L6.629,70.587C3.828,68.924 2.088,65.822 2.088,62.49L2.088,28.493C2.088,25.161 3.828,22.059 6.628,20.397L35.266,3.398C36.634,2.584 38.197,2.154 39.789,2.152C41.374,2.152 42.938,2.583 44.312,3.398L72.949,20.398C75.309,21.798 76.901,24.224 77.349,26.945C76.399,24.918 74.257,24.367 71.761,25.825L44.669,42.56C41.291,44.535 38.799,46.751 38.798,50.824L38.798,84.207C38.796,86.647 39.781,88.227 41.294,88.684C40.797,88.775 40.294,88.824 39.789,88.83C38.197,88.828 36.634,88.398 35.266,87.584M73.95,18.656L45.313,1.658C43.642,0.663 41.734,0.137 39.789,0.136C37.881,0.136 35.973,0.643 34.264,1.658L5.627,18.656C2.21,20.686 0.104,24.436 0.104,28.493L0.104,62.49C0.104,66.547 2.21,70.298 5.628,72.327L34.265,89.324C35.936,90.319 37.844,90.845 39.789,90.845C41.697,90.845 43.603,90.338 45.312,89.325L73.95,72.326C77.368,70.297 79.474,66.546 79.474,62.489L79.474,28.493C79.474,24.435 77.368,20.685 73.95,18.656" style="fill:rgb(62,71,74);"/>
                    <path d="M66.443,65.777L59.312,70.045C59.122,70.155 58.984,70.279 58.982,70.506L58.982,72.372C58.982,72.6 59.136,72.695 59.325,72.584L66.565,68.184C66.755,68.074 66.784,67.862 66.785,67.635L66.785,65.99C66.785,65.763 66.632,65.668 66.443,65.778" style="fill:rgb(71,179,83);"/>
                    <path d="M51.258,50.07C51.489,49.953 51.679,50.097 51.682,50.4L51.706,52.866C52.739,52.456 53.636,52.346 54.449,52.533C54.625,52.58 54.703,52.82 54.631,53.105L54.088,55.291C54.047,55.456 53.961,55.607 53.841,55.727C53.799,55.769 53.751,55.805 53.698,55.833C53.633,55.869 53.557,55.882 53.484,55.868C53.113,55.784 52.231,55.591 50.843,56.294C49.387,57.031 48.878,58.296 48.888,59.235C48.9,60.356 49.475,60.696 51.461,60.73C54.107,60.774 55.25,61.93 55.278,64.595C55.305,67.212 53.908,70.022 51.771,71.745L51.818,74.186C51.821,74.48 51.63,74.817 51.399,74.934L49.953,75.767C49.721,75.884 49.531,75.74 49.528,75.447L49.503,73.044C48.264,73.559 47.009,73.684 46.207,73.361C46.056,73.302 45.991,73.079 46.051,72.825L46.575,70.617C46.614,70.442 46.704,70.282 46.834,70.158C46.874,70.119 46.92,70.085 46.97,70.059C47.041,70.018 47.125,70.009 47.203,70.034C48.067,70.325 49.172,70.189 50.235,69.651C51.585,68.968 52.488,67.591 52.474,66.223C52.461,64.983 51.789,64.466 50.155,64.454C48.075,64.46 46.136,64.05 46.104,60.988C46.078,58.468 47.389,55.844 49.464,54.185L49.438,51.72C49.435,51.417 49.62,51.084 49.858,50.964L51.258,50.07Z" style="fill:rgb(254,254,254);"/>
                    <path d="M98.634,48.046L104.944,48.046C105.787,48.066 106.623,48.209 107.424,48.472C108.144,48.712 108.776,49.059 109.304,49.502C109.818,49.934 110.231,50.473 110.514,51.081C110.804,51.7 110.946,52.434 110.931,53.289C110.931,54.096 110.771,54.815 110.457,55.427C110.145,56.044 109.701,56.584 109.156,57.009C108.554,57.473 107.878,57.832 107.156,58.069C106.373,58.331 105.555,58.47 104.73,58.482L98.634,58.482L98.634,48.046ZM109.474,38.746C109.153,39.298 108.717,39.775 108.197,40.146C107.616,40.557 106.969,40.866 106.285,41.061C105.548,41.28 104.784,41.399 104.015,41.415L98.634,41.415L98.634,32.515L103.854,32.515C104.694,32.53 105.523,32.634 106.321,32.825C107.055,33.001 107.707,33.275 108.257,33.64C108.772,33.98 109.172,34.408 109.481,34.944C109.776,35.458 109.926,36.117 109.926,36.902C109.926,37.626 109.778,38.229 109.475,38.747M116.511,46.812C115.692,45.829 114.7,45.004 113.585,44.378C114.359,43.864 115.058,43.247 115.663,42.542C116.301,41.794 116.81,40.943 117.167,40.027C117.532,39.096 117.727,38.061 117.747,36.941C117.767,34.999 117.361,33.29 116.537,31.86C115.732,30.459 114.612,29.265 113.266,28.373C111.946,27.493 110.428,26.837 108.75,26.419C107.105,26.012 105.419,25.799 103.725,25.783L92.26,25.783C91.46,25.783 90.81,26.4 90.81,27.161L90.81,63.811C90.81,64.573 91.46,65.19 92.26,65.19L104.612,65.19C106.376,65.174 108.128,64.907 109.816,64.395C111.516,63.877 113.045,63.119 114.358,62.14C115.697,61.146 116.799,59.869 117.586,58.399C118.396,56.897 118.798,55.156 118.778,53.239C118.778,51.999 118.577,50.822 118.182,49.741C117.796,48.676 117.23,47.685 116.509,46.811M139.996,48.891L133.668,48.891L136.857,39.064L139.996,48.891ZM140.313,26.742C140.122,26.17 139.563,25.782 138.932,25.782L134.829,25.782C134.199,25.782 133.644,26.167 133.451,26.736L121.008,63.388C120.866,63.808 120.943,64.265 121.216,64.622C121.489,64.978 121.924,65.188 122.386,65.188L127.285,65.188C127.919,65.188 128.48,64.795 128.668,64.219L131.448,55.697L142.174,55.697L144.906,64.213C145.092,64.793 145.655,65.188 146.292,65.188L151.162,65.188C151.625,65.188 152.059,64.979 152.332,64.624C152.603,64.275 152.682,63.813 152.542,63.394L140.313,26.742ZM181.976,48.227C181.31,47.377 180.536,46.617 179.674,45.967C178.817,45.321 177.907,44.747 176.955,44.252C175.991,43.752 174.997,43.31 173.979,42.93C172.993,42.565 171.997,42.23 170.99,41.928C170.084,41.662 169.184,41.375 168.292,41.067C167.44,40.778 166.62,40.401 165.847,39.94C165.199,39.558 164.631,39.054 164.175,38.456C163.799,37.954 163.609,37.331 163.597,36.574C163.597,35.823 163.744,35.196 164.048,34.654C164.36,34.095 164.793,33.612 165.315,33.241C165.896,32.828 166.545,32.52 167.233,32.331C168.917,31.855 170.806,31.926 172.172,32.433C172.878,32.687 173.527,33.078 174.082,33.583C174.629,34.094 175.072,34.706 175.386,35.386C175.732,36.123 175.97,36.963 176.093,37.881C176.183,38.568 176.8,39.084 177.53,39.084L182.559,39.084C182.949,39.084 183.321,38.936 183.594,38.671C183.864,38.413 184.014,38.053 184.007,37.679C183.967,35.801 183.532,34.067 182.714,32.527C181.91,31.016 180.805,29.687 179.466,28.621C178.14,27.564 176.601,26.734 174.893,26.151C171.649,25.048 168.046,24.989 164.603,26.008C162.946,26.498 161.443,27.23 160.133,28.178C158.811,29.129 157.702,30.344 156.875,31.747C156.023,33.191 155.59,34.84 155.59,36.65C155.59,38.472 156.03,40.094 156.894,41.472C157.734,42.798 158.815,43.956 160.08,44.885C161.325,45.808 162.72,46.595 164.225,47.225C165.627,47.814 167.057,48.335 168.509,48.785C169.427,49.065 170.384,49.378 171.379,49.724C172.285,50.039 173.125,50.436 173.875,50.904C174.532,51.304 175.099,51.835 175.541,52.464C175.921,53.012 176.107,53.693 176.107,54.548C176.107,55.308 175.948,55.928 175.624,56.446C175.278,57.002 174.816,57.475 174.268,57.834C173.651,58.232 172.971,58.521 172.256,58.688C170.445,59.132 168.474,59.062 166.919,58.585C166.12,58.348 165.372,57.964 164.714,57.452C164.08,56.951 163.552,56.329 163.161,55.622C162.751,54.892 162.476,54.029 162.341,53.058C162.245,52.373 161.631,51.861 160.905,51.861L155.9,51.861C155.508,51.861 155.133,52.011 154.862,52.278C154.591,52.539 154.442,52.902 154.452,53.278C154.512,55.241 155.011,57.027 155.935,58.586C156.839,60.109 158.044,61.432 159.477,62.473C160.898,63.513 162.529,64.32 164.323,64.871C166.1,65.416 167.943,65.691 169.798,65.691C171.458,65.691 173.141,65.467 174.797,65.024C176.482,64.573 178.021,63.887 179.367,62.987C180.732,62.082 181.888,60.895 182.757,59.507C183.657,58.072 184.112,56.385 184.112,54.497C184.112,53.26 183.921,52.104 183.542,51.063C183.171,50.042 182.642,49.085 181.975,48.227M214.087,25.782L209.454,25.782C208.654,25.782 208.005,26.398 208.005,27.159L208.005,41.54L195.1,41.54L195.1,27.159C195.1,26.398 194.452,25.782 193.652,25.782L189.045,25.782C188.245,25.782 187.596,26.398 187.596,27.159L187.596,63.811C187.596,64.572 188.246,65.188 189.046,65.188L193.652,65.188C194.452,65.188 195.1,64.572 195.1,63.811L195.1,48.247L208.006,48.247L208.006,63.811C208.006,64.572 208.656,65.188 209.456,65.188L214.088,65.188C214.888,65.188 215.538,64.572 215.538,63.811L215.538,27.159C215.538,26.398 214.888,25.782 214.088,25.782M95.243,71.541L93.49,71.541L93.49,76.231L92.553,76.231L92.553,71.541L90.812,71.541L90.812,70.802L95.242,70.802L95.243,71.541ZM100.64,76.231L99.723,76.231L99.723,73.808L97.782,73.808L97.782,76.231L96.868,76.231L96.868,70.802L97.782,70.802L97.782,73.073L99.722,73.073L99.722,70.803L100.64,70.803L100.64,76.231ZM106.03,73.797L103.68,73.797L103.68,75.5L106.43,75.5L106.43,76.23L102.735,76.23L102.735,70.802L106.401,70.802L106.401,71.54L103.681,71.54L103.681,73.072L106.029,73.072L106.03,73.797ZM115.11,73.77L115.11,75.5L116.137,75.5C116.286,75.499 116.422,75.477 116.545,75.436C116.668,75.395 116.774,75.338 116.863,75.266C117.047,75.115 117.152,74.889 117.149,74.651C117.151,74.525 117.128,74.401 117.082,74.284C117.04,74.179 116.974,74.085 116.89,74.009C116.8,73.932 116.696,73.873 116.584,73.836C116.454,73.793 116.317,73.771 116.18,73.771L115.11,73.77ZM115.11,73.088L116.012,73.088C116.152,73.086 116.283,73.068 116.406,73.034C116.52,73.005 116.627,72.954 116.721,72.884C116.907,72.754 117.016,72.54 117.011,72.313C117.013,72.192 116.988,72.072 116.937,71.962C116.888,71.867 116.816,71.785 116.727,71.724C116.629,71.66 116.521,71.614 116.407,71.588C116.275,71.559 116.14,71.543 116.004,71.541L115.11,71.541L115.11,73.088ZM114.165,76.232L114.165,70.802L115.988,70.802C116.262,70.806 116.519,70.836 116.758,70.892C116.998,70.95 117.207,71.039 117.386,71.158C117.565,71.277 117.705,71.429 117.806,71.614C117.909,71.799 117.959,72.019 117.956,72.273C117.96,72.522 117.877,72.765 117.721,72.96C117.555,73.159 117.34,73.311 117.098,73.402C117.257,73.445 117.398,73.505 117.523,73.582C117.761,73.731 117.94,73.96 118.027,74.227C118.071,74.36 118.093,74.502 118.094,74.651C118.094,74.91 118.044,75.137 117.944,75.333C117.844,75.529 117.706,75.693 117.531,75.825C117.342,75.963 117.13,76.064 116.904,76.125C116.649,76.195 116.386,76.231 116.121,76.232L114.165,76.232ZM122.836,73.167C122.833,72.963 122.813,72.76 122.776,72.559C122.744,72.371 122.682,72.19 122.593,72.021C122.511,71.867 122.393,71.735 122.249,71.636C122.09,71.533 121.904,71.482 121.715,71.489C121.528,71.482 121.343,71.533 121.186,71.636C121.046,71.737 120.932,71.869 120.853,72.022C120.77,72.181 120.713,72.361 120.681,72.562C120.649,72.762 120.631,72.964 120.628,73.167L120.628,73.867C120.631,74.071 120.649,74.273 120.683,74.474C120.716,74.674 120.774,74.854 120.857,75.014C120.94,75.174 121.051,75.304 121.191,75.404C121.331,75.504 121.507,75.554 121.719,75.554C121.932,75.554 122.111,75.504 122.254,75.404C122.395,75.304 122.509,75.175 122.597,75.016C122.686,74.847 122.747,74.664 122.778,74.476C122.813,74.274 122.832,74.071 122.835,73.867L122.836,73.167ZM123.781,73.867C123.781,74.188 123.738,74.496 123.651,74.79C123.571,75.071 123.44,75.336 123.265,75.57C123.093,75.794 122.873,75.977 122.621,76.106C122.341,76.244 122.031,76.313 121.719,76.306C121.376,76.306 121.078,76.239 120.825,76.104C120.576,75.974 120.359,75.79 120.19,75.566C120.017,75.332 119.888,75.068 119.81,74.788C119.725,74.489 119.682,74.179 119.683,73.868L119.683,73.174C119.683,72.961 119.702,72.752 119.74,72.548C119.778,72.344 119.834,72.152 119.909,71.971C119.984,71.79 120.076,71.624 120.186,71.472C120.408,71.164 120.725,70.935 121.088,70.822C121.278,70.759 121.487,70.728 121.715,70.728C122.059,70.728 122.36,70.795 122.618,70.93C122.876,71.064 123.091,71.243 123.263,71.468C123.435,71.694 123.564,71.955 123.65,72.25C123.737,72.545 123.78,72.853 123.78,73.174L123.781,73.867ZM129.366,70.803L129.374,74.438C129.371,74.717 129.324,74.971 129.233,75.2C129.141,75.43 129.013,75.627 128.848,75.791C128.678,75.958 128.474,76.088 128.25,76.171C127.999,76.263 127.733,76.308 127.465,76.305C127.182,76.305 126.925,76.26 126.695,76.171C126.474,76.087 126.273,75.959 126.104,75.793C125.936,75.625 125.805,75.424 125.72,75.203C125.626,74.959 125.578,74.7 125.579,74.438L125.587,70.802L126.512,70.802L126.519,74.438C126.522,74.605 126.544,74.757 126.586,74.896C126.628,75.036 126.688,75.156 126.766,75.256C126.844,75.356 126.944,75.437 127.059,75.491C127.186,75.55 127.325,75.579 127.465,75.575C127.608,75.577 127.749,75.548 127.88,75.491C127.998,75.438 128.102,75.357 128.182,75.255C128.262,75.155 128.324,75.035 128.367,74.896C128.407,74.757 128.429,74.604 128.433,74.438L128.441,70.802L129.366,70.803ZM132.352,73.39L133.218,73.39C133.375,73.39 133.519,73.369 133.65,73.328C133.78,73.285 133.893,73.225 133.989,73.147C134.083,73.069 134.159,72.971 134.209,72.859C134.264,72.737 134.292,72.603 134.289,72.469C134.289,72.318 134.264,72.184 134.214,72.068C134.166,71.954 134.093,71.853 134,71.772C133.901,71.688 133.785,71.627 133.66,71.592C133.515,71.549 133.365,71.528 133.214,71.527L132.352,71.527L132.352,73.39ZM133.308,74.114L132.352,74.114L132.352,76.231L131.411,76.231L131.411,70.803L133.214,70.803C133.507,70.806 133.777,70.841 134.024,70.91C134.271,70.978 134.484,71.08 134.664,71.215C134.845,71.35 134.985,71.52 135.084,71.724C135.184,71.927 135.234,72.166 135.233,72.44C135.233,72.623 135.208,72.79 135.157,72.94C135.06,73.236 134.869,73.492 134.614,73.67C134.483,73.765 134.341,73.844 134.191,73.905L135.398,76.187L135.398,76.231L134.395,76.231L133.308,74.114ZM140.83,76.231L139.881,76.231L138.023,72.496L138.019,76.231L137.066,76.231L137.066,70.802L138.019,70.802L139.87,74.528L139.878,70.802L140.83,70.802L140.83,76.231ZM146.224,73.797L143.874,73.797L143.874,75.5L146.624,75.5L146.624,76.23L142.93,76.23L142.93,70.802L146.596,70.802L146.596,71.54L143.875,71.54L143.875,73.072L146.224,73.072L146.224,73.797ZM149.014,74.21L152.154,74.21L152.154,73.491L149.014,73.491L149.014,74.21ZM155.586,74.206L156.896,74.206L156.249,72.078L155.586,74.206ZM157.131,74.971L155.347,74.971L154.955,76.231L153.982,76.231L155.837,70.803L156.664,70.803L158.484,76.232L157.515,76.232L157.131,74.971ZM163.936,75.553C163.834,75.666 163.72,75.768 163.595,75.855C163.457,75.95 163.31,76.03 163.155,76.093C162.985,76.161 162.809,76.214 162.629,76.25C162.439,76.287 162.237,76.305 162.023,76.305C161.68,76.305 161.377,76.242 161.113,76.115C160.854,75.994 160.626,75.817 160.445,75.596C160.257,75.366 160.116,75.102 160.029,74.818C159.933,74.506 159.883,74.182 159.882,73.856L159.882,73.186C159.882,72.842 159.929,72.521 160.022,72.224C160.108,71.941 160.246,71.677 160.429,71.444C160.606,71.222 160.822,71.048 161.078,70.921C161.334,70.792 161.627,70.728 161.956,70.728C162.251,70.729 162.515,70.767 162.748,70.843C162.981,70.921 163.181,71.033 163.348,71.178C163.515,71.323 163.647,71.5 163.746,71.709C163.844,71.917 163.906,72.151 163.932,72.41L163.007,72.41C162.987,72.274 162.95,72.141 162.897,72.015C162.807,71.788 162.623,71.61 162.393,71.528C162.258,71.481 162.115,71.459 161.972,71.463C161.791,71.457 161.613,71.506 161.46,71.603C161.318,71.696 161.2,71.822 161.106,71.979C161.006,72.149 160.936,72.334 160.896,72.527C160.851,72.741 160.828,72.959 160.826,73.178L160.826,73.856C160.829,74.083 160.854,74.299 160.899,74.506C160.945,74.712 161.017,74.894 161.115,75.051C161.213,75.208 161.339,75.335 161.493,75.431C161.648,75.524 161.833,75.572 162.05,75.575C162.139,75.575 162.23,75.57 162.325,75.559C162.42,75.547 162.509,75.529 162.593,75.505C162.674,75.481 162.752,75.449 162.827,75.41C162.893,75.373 162.951,75.324 162.999,75.265L163.007,74.18L161.976,74.18L161.976,73.484L163.928,73.484L163.936,75.553ZM167.07,74.206L168.38,74.206L167.734,72.078L167.07,74.206ZM168.616,74.971L166.832,74.971L166.44,76.231L165.467,76.231L167.322,70.803L168.149,70.803L169.969,76.232L168.999,76.232L168.616,74.971ZM171.715,70.803L175.111,70.803L175.111,71.545L173.876,71.545L173.876,75.493L175.111,75.493L175.111,76.232L171.715,76.232L171.715,75.493L172.923,75.493L172.923,71.545L171.715,71.545L171.715,70.803ZM181.025,76.231L180.076,76.231L178.218,72.496L178.214,76.231L177.261,76.231L177.261,70.802L178.214,70.802L180.065,74.528L180.073,70.802L181.025,70.802L181.025,76.231ZM191.78,74.833C191.781,74.714 191.752,74.597 191.696,74.493C191.636,74.39 191.554,74.301 191.456,74.233C191.342,74.153 191.218,74.087 191.088,74.037C190.936,73.978 190.78,73.926 190.623,73.882C190.397,73.82 190.175,73.743 189.959,73.652C189.75,73.565 189.554,73.452 189.375,73.314C189.209,73.185 189.068,73.027 188.959,72.847C188.851,72.66 188.796,72.447 188.799,72.231C188.799,71.998 188.852,71.788 188.959,71.602C189.066,71.418 189.207,71.261 189.384,71.132C189.572,70.997 189.782,70.895 190.004,70.832C190.497,70.689 191.022,70.694 191.512,70.849C191.751,70.93 191.96,71.044 192.139,71.189C192.318,71.334 192.459,71.508 192.564,71.71C192.669,71.913 192.722,72.138 192.724,72.384L191.784,72.384C191.772,72.255 191.741,72.129 191.692,72.009C191.644,71.899 191.575,71.799 191.488,71.716C191.396,71.631 191.287,71.566 191.168,71.526C191.028,71.479 190.881,71.456 190.733,71.459C190.592,71.459 190.461,71.476 190.341,71.511C190.228,71.541 190.122,71.593 190.029,71.664C189.849,71.794 189.745,72.005 189.749,72.227C189.749,72.354 189.783,72.464 189.851,72.557C189.924,72.654 190.014,72.736 190.117,72.801C190.227,72.871 190.353,72.931 190.496,72.982C190.639,73.033 190.787,73.079 190.941,73.122C191.179,73.189 191.406,73.271 191.623,73.37C191.84,73.468 192.031,73.586 192.196,73.724C192.361,73.862 192.491,74.022 192.588,74.204C192.684,74.384 192.732,74.591 192.733,74.826C192.733,75.067 192.679,75.279 192.572,75.463C192.465,75.648 192.318,75.806 192.141,75.925C191.95,76.054 191.738,76.15 191.514,76.207C191.1,76.316 190.668,76.331 190.247,76.253C189.911,76.193 189.591,76.062 189.31,75.868C189.177,75.774 189.058,75.662 188.955,75.536C188.744,75.271 188.628,74.941 188.628,74.602L189.572,74.602C189.585,74.765 189.623,74.908 189.686,75.03C189.746,75.149 189.831,75.252 189.936,75.334C190.042,75.415 190.165,75.477 190.304,75.518C190.444,75.558 190.599,75.578 190.768,75.579C190.91,75.579 191.042,75.563 191.164,75.531C191.287,75.498 191.394,75.45 191.486,75.387C191.575,75.326 191.649,75.245 191.702,75.151C191.755,75.054 191.782,74.944 191.78,74.833M198.255,76.231L197.338,76.231L197.338,73.808L195.397,73.808L195.397,76.231L194.483,76.231L194.483,70.802L195.397,70.802L195.397,73.073L197.338,73.073L197.338,70.803L198.255,70.803L198.255,76.231ZM203.645,73.797L201.295,73.797L201.295,75.5L204.045,75.5L204.045,76.23L200.351,76.23L200.351,70.802L204.017,70.802L204.017,71.54L201.296,71.54L201.296,73.072L203.645,73.072L203.645,73.797ZM207.073,75.501L209.794,75.501L209.794,76.231L206.132,76.231L206.132,70.803L207.073,70.803L207.073,75.501ZM212.816,75.501L215.536,75.501L215.536,76.231L211.875,76.231L211.875,70.803L212.815,70.803L212.816,75.501Z" style="fill:rgb(62,71,74);"/>
                </g>
            </g>
        </g>
    </g>
</svg>
