<?xml version="1.0" encoding="UTF-8"?>
<svg width="128px" height="128px" viewBox="0 0 128 128" version="1.1" xmlns="http://www.w3.org/2000/svg" xmlns:xlink="http://www.w3.org/1999/xlink">
    <!-- Generator: Sketch 51 (57462) - http://www.bohemiancoding.com/sketch -->
    <title>Browser Sync Logo</title>
    <desc>Created with Sketch.</desc>
    <defs></defs>
    <g id="Colophon" stroke="none" stroke-width="1" fill="none" fill-rule="evenodd">
        <g id="Browser-Sync-Logo" fill="#F24747" fill-rule="nonzero">
            <g id="browser-sync" transform="translate(31.000000, 16.000000)">
                <path d="M29.9315789,0.173684211 L1.01315789,14.6473684 C0.55,14.8789474 0.231578947,15.3710526 0.231578947,15.8921053 L0.231578947,79.6631579 C0.231578947,80.1842105 0.521052632,80.6763158 1.01315789,80.9078947 L29.9315789,95.3815789 C30.8578947,95.8447368 31.9578947,95.1789474 31.9578947,94.1368421 L31.9578947,1.41842105 C31.9868421,0.376315789 30.8868421,-0.318421053 29.9315789,0.173684211 Z" id="Shape"></path>
                <path d="M36.0684211,95.3526316 L64.9868421,80.8789474 C65.45,80.6473684 65.7684211,80.1552632 65.7684211,79.6342105 L65.7684211,48.6315789 C65.7684211,48.1105263 65.4789474,47.6184211 64.9868421,47.3868421 L36.0684211,32.9131579 C35.1421053,32.45 34.0421053,33.1157895 34.0421053,34.1578947 L34.0421053,94.1078947 C34.0131579,95.15 35.1131579,95.8447368 36.0684211,95.3526316 Z" id="Shape"></path>
            </g>
        </g>
    </g>
</svg>