<?xml version="1.0" encoding="UTF-8" standalone="no"?>
<!DOCTYPE svg PUBLIC "-//W3C//DTD SVG 1.1//EN" "http://www.w3.org/Graphics/SVG/1.1/DTD/svg11.dtd">
<svg width="128px" height="128px" viewBox="0 0 128 128" version="1.1" xmlns="http://www.w3.org/2000/svg" xmlns:xlink="http://www.w3.org/1999/xlink" xml:space="preserve" xmlns:serif="http://www.serif.com/" style="fill-rule:evenodd;clip-rule:evenodd;stroke-linejoin:round;stroke-miterlimit:2;">
    <g id="Artboard1" transform="matrix(0.131959,0,0,0.177778,-191.34,28.4444)">
        <rect x="1450" y="-160" width="970" height="720" style="fill:none;"/>
        <g transform="matrix(1.33209,0,0,0.988769,1677.29,-69.9997)">
            <g>
                <g>
                    <g transform="matrix(1,0,0,1,-79.6085,0)">
                        <path d="M466.524,107.328L431.275,502.207L272.83,546.133L114.82,502.268L79.608,107.328L466.524,107.328Z" style="fill:rgb(38,77,228);fill-rule:nonzero;"/>
                    </g>
                    <g transform="matrix(1,0,0,1,-79.6085,0)">
                        <path d="M401.098,477.062L431.221,139.62L273.066,139.62L273.066,512.558L401.098,477.062Z" style="fill:rgb(41,101,241);fill-rule:nonzero;"/>
                    </g>
                    <g transform="matrix(1,0,0,1,-79.6085,0)">
                        <path d="M160.331,286.098L164.672,334.535L273.066,334.535L273.066,286.098L160.331,286.098ZM273.066,188.059L151.607,188.059L156.011,236.497L273.066,236.497L273.066,188.059ZM273.066,462.292L273.066,411.896L272.854,411.953L218.909,397.386L215.46,358.755L166.836,358.755L173.622,434.809L272.844,462.354L273.066,462.292Z" style="fill:rgb(235,235,235);fill-rule:nonzero;"/>
                    </g>
                    <path d="M91.058,0L149.725,0L149.725,24.533L115.591,24.533L115.591,49.067L149.725,49.067L149.725,73.6L91.058,73.6L91.058,0ZM161.458,0L220.125,0L220.125,21.333L185.991,21.333L185.991,25.6L220.125,25.6L220.125,74.667L161.458,74.667L161.458,52.267L195.591,52.267L195.591,48L161.458,48L161.458,0ZM231.858,0L290.525,0L290.525,21.333L256.391,21.333L256.391,25.6L290.525,25.6L290.525,74.667L231.858,74.667L231.858,52.267L265.991,52.267L265.991,48L231.858,48L231.858,0Z" style="fill-rule:nonzero;"/>
                    <g transform="matrix(1,0,0,1,-79.6085,0)">
                        <path d="M332.545,334.535L326.922,397.355L272.899,411.937L272.899,462.33L372.199,434.809L372.928,426.626L384.31,299.105L385.492,286.098L394.237,188.059L272.899,188.059L272.899,236.497L341.153,236.497L336.745,286.098L272.899,286.098L272.899,334.535L332.545,334.535Z" style="fill:white;fill-rule:nonzero;"/>
                    </g>
                </g>
            </g>
        </g>
    </g>
</svg>
