<?xml version="1.0" encoding="UTF-8"?>
<svg width="128px" height="128px" viewBox="0 0 128 128" version="1.1" xmlns="http://www.w3.org/2000/svg" xmlns:xlink="http://www.w3.org/1999/xlink">
    <!-- Generator: Sketch 51 (57462) - http://www.bohemiancoding.com/sketch -->
    <title>Furtive Logo</title>
    <desc>Created with Sketch.</desc>
    <defs></defs>
    <g id="Colophon" stroke="none" stroke-width="1" fill="none" fill-rule="evenodd">
        <g id="Furtive-Logo">
            <g id="Group" transform="translate(16.000000, 42.000000)">
                <path d="M0.532,27 L0.532,1.296 L16.84,1.296 L16.84,3.384 L2.98,3.384 L2.98,12.672 L15.292,12.672 L15.292,14.76 L2.98,14.76 L2.98,27 L0.532,27 Z M32.34,8.296 L32.34,26.872 L30.252,26.872 L30.252,23.524 L30.18,23.524 C29.6039971,24.7480061 28.7400058,25.7019966 27.588,26.386 C26.4359942,27.0700034 25.164007,27.412 23.772,27.412 C22.0919916,27.412 20.6880056,26.9920042 19.56,26.152 L19.56,33.748 L17.256,33.748 L17.256,8.296 L19.524,8.296 L19.524,20.392 C19.5720002,22.1200086 19.9739962,23.4039958 20.73,24.244 C21.4860038,25.0840042 22.7399912,25.504 24.492,25.504 C26.3160091,25.504 27.7019953,24.7780073 28.65,23.326 C29.5980047,21.8739927 30.072,20.1160103 30.072,18.052 L30.072,8.296 L32.34,8.296 Z M37.076,27.1327569 L37.076,8.5567569 L39.164,8.5567569 L39.164,12.9127569 L39.236,12.9127569 C39.8120029,11.4007493 40.7119939,10.236761 41.936,9.4207569 C43.1600061,8.60475282 44.5999917,8.23275654 46.256,8.3047569 L46.256,10.5727569 C44.2399899,10.4767564 42.5840065,11.0707505 41.288,12.3547569 C39.9919935,13.6387633 39.344,15.2647471 39.344,17.2327569 L39.344,27.1327569 L37.076,27.1327569 Z M53.764,2.296 L53.764,7.876 L57.544,7.876 L57.544,9.784 L53.764,9.784 L53.764,22.312 C53.764,23.1280041 53.8839988,23.7279981 54.124,24.112 C54.3640012,24.4960019 54.8559963,24.7119998 55.6,24.76 C56.2480032,24.76 56.8959968,24.7240004 57.544,24.652 L57.544,26.596 C57.3279989,26.596 56.9980022,26.6079999 56.554,26.632 C56.1099978,26.6560001 55.7680012,26.668 55.528,26.668 C54.0159924,26.668 52.960003,26.368003 52.36,25.768 C51.759997,25.167997 51.4719999,24.0760079 51.496,22.492 L51.496,9.784 L48.256,9.784 L48.256,7.876 L51.496,7.876 L51.496,2.296 L53.764,2.296 Z M60.256,25.872 L60.256,7.296 L62.524,7.296 L62.524,25.872 L60.256,25.872 Z M60.0148028,3.79394318 C59.3710657,3.12453409 59.3710657,1.78571591 60.0148028,1.11630682 C60.6585399,0.446897727 61.9460141,0.446897727 62.5897512,1.11630682 C63.2334883,1.78571591 63.2334883,3.12453409 62.5897512,3.79394318 C61.9460141,4.46335227 60.6585399,4.46335227 60.0148028,3.79394318 Z M71.42,25.872 L64.256,7.296 L66.776,7.296 L72.608,23.604 L72.68,23.604 L78.44,7.296 L80.78,7.296 L73.832,25.872 L71.42,25.872 Z M96.436,17.324 L82.144,17.324 C82.1680001,19.2440096 82.6959948,20.9419926 83.728,22.418 C84.7600052,23.8940074 86.27199,24.632 88.264,24.632 C91.3360154,24.632 93.2799959,23.0480158 94.096,19.88 L96.364,19.88 C95.3319948,24.3200222 92.6320218,26.54 88.264,26.54 C85.4799861,26.54 83.386007,25.6160092 81.982,23.768 C80.577993,21.9199908 79.876,19.5680143 79.876,16.712 C79.876,14.9839914 80.1519972,13.4060071 80.704,11.978 C81.2560028,10.5499929 82.1859935,9.34400492 83.494,8.36 C84.8020065,7.37599508 86.3919906,6.884 88.264,6.884 C89.7040072,6.884 90.9759945,7.17799706 92.08,7.766 C93.1840055,8.35400294 94.0479969,9.15199496 94.672,10.16 C95.2960031,11.168005 95.7579985,12.2779939 96.058,13.49 C96.3580015,14.7020061 96.4840002,15.9799933 96.436,17.324 Z M82.144,15.416 L94.168,15.416 C94.1199998,13.5919909 93.5620053,12.0320065 92.494,10.736 C91.4259947,9.43999352 90.0160088,8.792 88.264,8.792 C86.5119912,8.792 85.1020053,9.43399358 84.034,10.718 C82.9659947,12.0020064 82.336001,13.5679908 82.144,15.416 Z" id="Fμrtive" fill="#CCCCCC"></path>
                <path d="M5.1720002,40.168 L4.6680002,40.168 C4.52399948,39.5066634 4.13467004,39.176 3.5000002,39.176 C3.04133124,39.176 2.6853348,39.3506649 2.4320002,39.7 C2.1786656,40.0493351 2.0520002,40.461331 2.0520002,40.936 C2.0520002,41.410669 2.1786656,41.8226649 2.4320002,42.172 C2.6853348,42.5213351 3.04133124,42.696 3.5000002,42.696 C3.81466844,42.696 4.0853324,42.5853344 4.3120002,42.364 C4.538668,42.1426656 4.66800004,41.861335 4.7000002,41.52 L5.2040002,41.52 C5.13466652,42.0160025 4.94800172,42.4066652 4.6440002,42.692 C4.33999868,42.9773348 3.95866916,43.12 3.5000002,43.12 C2.89199716,43.12 2.4146686,42.9106688 2.0680002,42.492 C1.7213318,42.0733312 1.5480002,41.5546698 1.5480002,40.936 C1.5480002,40.3173302 1.7213318,39.7986688 2.0680002,39.38 C2.4146686,38.9613312 2.89199716,38.752 3.5000002,38.752 C3.9533358,38.752 4.33199868,38.8733321 4.6360002,39.116 C4.94000172,39.3586679 5.1186666,39.709331 5.1720002,40.168 Z M10.2840002,40.08 L9.78000018,40.08 C9.76933346,39.7813318 9.66266786,39.5560008 9.46000018,39.404 C9.2573325,39.2519992 9.0040017,39.176 8.70000018,39.176 C8.43866554,39.176 8.21066782,39.2333328 8.01600018,39.348 C7.82133254,39.4626672 7.72400018,39.6426654 7.72400018,39.888 C7.72400018,40.2080016 8.00933066,40.4399993 8.58000018,40.584 L9.25200018,40.736 C9.5826685,40.7840002 9.86133238,40.903999 10.0880002,41.096 C10.314668,41.288001 10.4280002,41.5493317 10.4280002,41.88 C10.4280002,42.2906687 10.2613352,42.599999 9.92800018,42.808 C9.59466518,43.016001 9.2093357,43.12 8.77200018,43.12 C8.2759977,43.12 7.87866834,43.0000012 7.58000018,42.76 C7.28133202,42.5199988 7.1133337,42.1546691 7.07600018,41.664 L7.58000018,41.664 C7.60133362,41.9946683 7.72266574,42.2493324 7.94400018,42.428 C8.16533462,42.6066676 8.44933178,42.696 8.79600018,42.696 C9.07866826,42.696 9.33733234,42.6306673 9.57200018,42.5 C9.80666802,42.3693327 9.92400018,42.1733346 9.92400018,41.912 C9.92400018,41.6933322 9.84400098,41.5306672 9.68400018,41.424 C9.52399938,41.3173328 9.30266826,41.2293337 9.02000018,41.16 L8.37200018,41.016 C7.98799826,40.9146662 7.70000114,40.7866674 7.50800018,40.632 C7.31599922,40.4773326 7.22000018,40.237335 7.22000018,39.912 C7.22000018,39.5226647 7.3746653,39.232001 7.68400018,39.04 C7.99333506,38.847999 8.3559981,38.752 8.77200018,38.752 C9.20400234,38.752 9.55999878,38.8653322 9.84000018,39.092 C10.1200016,39.3186678 10.2680001,39.6479978 10.2840002,40.08 Z M15.5320002,40.08 L15.0280002,40.08 C15.0173334,39.7813318 14.9106678,39.5560008 14.7080002,39.404 C14.5053325,39.2519992 14.2520017,39.176 13.9480002,39.176 C13.6866655,39.176 13.4586678,39.2333328 13.2640002,39.348 C13.0693325,39.4626672 12.9720002,39.6426654 12.9720002,39.888 C12.9720002,40.2080016 13.2573306,40.4399993 13.8280002,40.584 L14.5000002,40.736 C14.8306685,40.7840002 15.1093324,40.903999 15.3360002,41.096 C15.562668,41.288001 15.6760002,41.5493317 15.6760002,41.88 C15.6760002,42.2906687 15.5093352,42.599999 15.1760002,42.808 C14.8426652,43.016001 14.4573357,43.12 14.0200002,43.12 C13.5239977,43.12 13.1266683,43.0000012 12.8280002,42.76 C12.529332,42.5199988 12.3613337,42.1546691 12.3240002,41.664 L12.8280002,41.664 C12.8493336,41.9946683 12.9706657,42.2493324 13.1920002,42.428 C13.4133346,42.6066676 13.6973318,42.696 14.0440002,42.696 C14.3266682,42.696 14.5853323,42.6306673 14.8200002,42.5 C15.054668,42.3693327 15.1720002,42.1733346 15.1720002,41.912 C15.1720002,41.6933322 15.092001,41.5306672 14.9320002,41.424 C14.7719994,41.3173328 14.5506682,41.2293337 14.2680002,41.16 L13.6200002,41.016 C13.2359982,40.9146662 12.9480011,40.7866674 12.7560002,40.632 C12.5639992,40.4773326 12.4680002,40.237335 12.4680002,39.912 C12.4680002,39.5226647 12.6226653,39.232001 12.9320002,39.04 C13.241335,38.847999 13.6039981,38.752 14.0200002,38.752 C14.4520023,38.752 14.8079988,38.8653322 15.0880002,39.092 C15.3680016,39.3186678 15.5160001,39.6479978 15.5320002,40.08 Z M21.4280001,43 L21.4280001,38.872 L21.8920001,38.872 L21.8920001,39.568 L21.9160001,39.568 C22.2040015,39.0239973 22.6546637,38.752 23.2680001,38.752 C23.5506682,38.752 23.799999,38.8213326 24.0160001,38.96 C24.2320012,39.0986674 24.3773331,39.2986654 24.4520001,39.56 C24.569334,39.2986654 24.7466656,39.0986674 24.9840001,38.96 C25.2213346,38.8213326 25.481332,38.752 25.7640001,38.752 C26.6760047,38.752 27.1320001,39.2346618 27.1320001,40.2 L27.1320001,43 L26.6280001,43 L26.6280001,40.224 C26.6280001,39.8719982 26.5520009,39.6093342 26.4000001,39.436 C26.2479993,39.2626658 25.9986685,39.176 25.6520001,39.176 C24.9053297,39.176 24.5320001,39.671995 24.5320001,40.664 L24.5320001,43 L24.0280001,43 L24.0280001,40.2 C24.0333335,39.8959985 23.9666675,39.6493343 23.8280001,39.46 C23.6893327,39.2706657 23.4680016,39.176 23.1640001,39.176 C22.747998,39.176 22.4400011,39.3146653 22.2400001,39.592 C22.0399991,39.8693347 21.9373335,40.237331 21.9320001,40.696 L21.9320001,43 L21.4280001,43 Z M29.5000001,43 L29.5000001,38.872 L30.0040001,38.872 L30.0040001,43 L29.5000001,43 Z M29.5000001,38.096 L29.5000001,37.288 L30.0040001,37.288 L30.0040001,38.096 L29.5000001,38.096 Z M35.7880001,40.168 L35.2840001,40.168 C35.1399993,39.5066634 34.7506699,39.176 34.1160001,39.176 C33.6573311,39.176 33.3013347,39.3506649 33.0480001,39.7 C32.7946655,40.0493351 32.6680001,40.461331 32.6680001,40.936 C32.6680001,41.410669 32.7946655,41.8226649 33.0480001,42.172 C33.3013347,42.5213351 33.6573311,42.696 34.1160001,42.696 C34.4306683,42.696 34.7013323,42.5853344 34.9280001,42.364 C35.1546679,42.1426656 35.2839999,41.861335 35.3160001,41.52 L35.8200001,41.52 C35.7506664,42.0160025 35.5640016,42.4066652 35.2600001,42.692 C34.9559985,42.9773348 34.574669,43.12 34.1160001,43.12 C33.507997,43.12 33.0306685,42.9106688 32.6840001,42.492 C32.3373317,42.0733312 32.1640001,41.5546698 32.1640001,40.936 C32.1640001,40.3173302 32.3373317,39.7986688 32.6840001,39.38 C33.0306685,38.9613312 33.507997,38.752 34.1160001,38.752 C34.5693357,38.752 34.9479985,38.8733321 35.2520001,39.116 C35.5560016,39.3586679 35.7346665,39.709331 35.7880001,40.168 Z M37.924,43 L37.924,38.872 L38.388,38.872 L38.388,39.84 L38.404,39.84 C38.5320007,39.5039983 38.7319987,39.2453342 39.004,39.064 C39.2760014,38.8826658 39.5959982,38.7999999 39.964,38.816 L39.964,39.32 C39.5159978,39.2986666 39.1480015,39.4306652 38.86,39.716 C38.5719986,40.0013348 38.428,40.3626645 38.428,40.8 L38.428,43 L37.924,43 Z M42.012,39.384 C42.3586684,38.9626646 42.835997,38.752 43.444,38.752 C44.0520031,38.752 44.5293316,38.9613312 44.876,39.38 C45.2226684,39.7986688 45.396,40.3173302 45.396,40.936 C45.396,41.5546698 45.2226684,42.0733312 44.876,42.492 C44.5293316,42.9106688 44.0520031,43.12 43.444,43.12 C42.835997,43.12 42.3586684,42.9106688 42.012,42.492 C41.6653316,42.0733312 41.492,41.5546698 41.492,40.936 C41.492,40.3173302 41.6653316,39.8000021 42.012,39.384 Z M44.508,39.704 C44.2573321,39.3519982 43.902669,39.176 43.444,39.176 C42.9853311,39.176 42.6293346,39.3506649 42.376,39.7 C42.1226654,40.0493351 41.996,40.461331 41.996,40.936 C41.996,41.410669 42.1226654,41.8226649 42.376,42.172 C42.6293346,42.5213351 42.9853311,42.696 43.444,42.696 C43.902669,42.696 44.2586654,42.5213351 44.512,42.172 C44.7653346,41.8226649 44.892,41.410669 44.892,40.936 C44.892,40.461331 44.7640013,40.0506684 44.508,39.704 Z M49.14,38.872 L49.14,39.296 L48.324,39.296 L48.324,43 L47.82,43 L47.82,39.296 L47.116,39.296 L47.116,38.872 L47.82,38.872 L47.82,38.496 C47.8146666,38.1066647 47.8853326,37.808001 48.032,37.6 C48.1786674,37.391999 48.4413314,37.288 48.82,37.288 C48.9586673,37.288 49.0999993,37.2986666 49.244,37.32 L49.244,37.752 C49.0946659,37.7253332 48.9720005,37.712 48.876,37.712 C48.7693328,37.712 48.678667,37.7279998 48.604,37.76 C48.5293329,37.7920002 48.4746668,37.8239998 48.44,37.856 C48.4053331,37.8880002 48.3786667,37.9506662 48.36,38.044 C48.3413332,38.1373338 48.3306667,38.2053331 48.328,38.248 C48.3253333,38.2906669 48.324,38.378666 48.324,38.512 L48.324,38.872 L49.14,38.872 Z M51.02,43 L51.02,38.872 L51.484,38.872 L51.484,39.84 L51.5,39.84 C51.6280006,39.5039983 51.8279986,39.2453342 52.1,39.064 C52.3720013,38.8826658 52.6919981,38.7999999 53.06,38.816 L53.06,39.32 C52.6119977,39.2986666 52.2440014,39.4306652 51.956,39.716 C51.6679985,40.0013348 51.524,40.3626645 51.524,40.8 L51.524,43 L51.02,43 Z M57.5799999,41.4 L57.5799999,40.744 L57.5639999,40.744 C57.5213331,40.8240004 57.3800011,40.8853331 57.1399999,40.928 C57.0439995,40.9440001 56.9000009,40.9666665 56.7079999,40.996 C56.515999,41.0253335 56.3653338,41.0479999 56.2559999,41.064 C56.1466661,41.0800001 56.017334,41.1106664 55.8679999,41.156 C55.7186659,41.2013336 55.6040003,41.2519997 55.5239999,41.308 C55.4439995,41.3640003 55.3733336,41.4413328 55.3119999,41.54 C55.2506663,41.6386672 55.2199999,41.7519994 55.2199999,41.88 C55.2199999,42.1200012 55.311999,42.3159992 55.4959999,42.468 C55.6800009,42.6200008 55.8946654,42.696 56.1399999,42.696 C56.5400019,42.696 56.8813319,42.5773345 57.1639999,42.34 C57.446668,42.1026655 57.5853333,41.7893353 57.5799999,41.4 Z M55.3959999,40.136 L54.8919999,40.136 C54.9133334,39.6719977 55.0733318,39.3253345 55.3719999,39.096 C55.6706681,38.8666655 56.0679975,38.752 56.5639999,38.752 C57.5773383,38.752 58.0839999,39.1946622 58.0839999,40.08 L58.0839999,42.272 C58.0839999,42.4746677 58.1826656,42.576 58.3799999,42.576 C58.4333335,42.576 58.4866663,42.5653334 58.5399999,42.544 L58.5399999,42.968 C58.4386661,42.9893334 58.3293339,43 58.2119999,43 C57.9719987,43 57.8133337,42.9413339 57.7359999,42.824 C57.6586662,42.7066661 57.6199999,42.5253346 57.6199999,42.28 L57.6039999,42.28 C57.411999,42.5733348 57.2066677,42.786666 56.9879999,42.92 C56.7693322,43.053334 56.4733351,43.12 56.0999999,43.12 C55.6946646,43.12 55.3626679,43.0173344 55.1039999,42.812 C54.845332,42.6066656 54.7159999,42.3066686 54.7159999,41.912 C54.7159999,41.703999 54.7546662,41.5240008 54.8319999,41.372 C54.9093337,41.2199992 55.0039994,41.1026671 55.1159999,41.02 C55.2280005,40.9373329 55.3813323,40.866667 55.5759999,40.808 C55.7706676,40.749333 55.9453325,40.7080001 56.0999999,40.684 C56.2546674,40.6599999 56.457332,40.6346668 56.7079999,40.608 C56.7400001,40.608 56.7653332,40.6066667 56.7839999,40.604 C56.8026667,40.6013333 56.8266665,40.5986667 56.8559999,40.596 C56.8853334,40.5933333 56.9106665,40.5893334 56.9319999,40.584 C57.1720011,40.5573332 57.3399995,40.5093337 57.4359999,40.44 C57.5320004,40.3706663 57.5799999,40.232001 57.5799999,40.024 C57.5799999,39.4586638 57.2200035,39.176 56.4999999,39.176 C56.1693316,39.176 55.9040009,39.2559992 55.7039999,39.416 C55.5039989,39.5760008 55.4013333,39.8159984 55.3959999,40.136 Z M60.4919999,43 L60.4919999,38.872 L60.9559999,38.872 L60.9559999,39.568 L60.9799999,39.568 C61.2680014,39.0239973 61.7186635,38.752 62.3319999,38.752 C62.614668,38.752 62.8639988,38.8213326 63.0799999,38.96 C63.296001,39.0986674 63.4413329,39.2986654 63.5159999,39.56 C63.6333338,39.2986654 63.8106654,39.0986674 64.0479999,38.96 C64.2853344,38.8213326 64.5453318,38.752 64.8279999,38.752 C65.7400045,38.752 66.1959999,39.2346618 66.1959999,40.2 L66.1959999,43 L65.6919999,43 L65.6919999,40.224 C65.6919999,39.8719982 65.6160007,39.6093342 65.4639999,39.436 C65.3119992,39.2626658 65.0626683,39.176 64.7159999,39.176 C63.9693295,39.176 63.5959999,39.671995 63.5959999,40.664 L63.5959999,43 L63.0919999,43 L63.0919999,40.2 C63.0973333,39.8959985 63.0306673,39.6493343 62.8919999,39.46 C62.7533326,39.2706657 62.5320014,39.176 62.2279999,39.176 C61.8119978,39.176 61.5040009,39.3146653 61.3039999,39.592 C61.1039989,39.8693347 61.0013333,40.237331 60.9959999,40.696 L60.9959999,43 L60.4919999,43 Z M72.0279999,41.072 L68.8519999,41.072 C68.8573333,41.4986688 68.9746654,41.8759984 69.2039999,42.204 C69.4333344,42.5320016 69.769331,42.696 70.2119999,42.696 C70.89467,42.696 71.3266657,42.3440035 71.5079999,41.64 L72.0119999,41.64 C71.7826654,42.6266716 71.1826714,43.12 70.2119999,43.12 C69.5933301,43.12 69.1280015,42.9146687 68.8159999,42.504 C68.5039983,42.0933313 68.3479999,41.5706698 68.3479999,40.936 C68.3479999,40.5519981 68.4093326,40.2013349 68.5319999,39.884 C68.6546672,39.5666651 68.8613318,39.2986678 69.1519999,39.08 C69.442668,38.8613322 69.7959978,38.752 70.2119999,38.752 C70.5320015,38.752 70.8146653,38.8173327 71.0599999,38.948 C71.3053345,39.0786673 71.4973325,39.2559989 71.6359999,39.48 C71.7746673,39.7040011 71.8773329,39.9506653 71.9439999,40.22 C72.0106669,40.4893347 72.0386666,40.7733318 72.0279999,41.072 Z M68.8519999,40.648 L71.5239999,40.648 C71.5133332,40.2426646 71.3893344,39.8960014 71.1519999,39.608 C70.9146654,39.3199986 70.6013352,39.176 70.2119999,39.176 C69.8226646,39.176 69.5093344,39.3186652 69.2719999,39.604 C69.0346654,39.8893348 68.8946668,40.2373313 68.8519999,40.648 Z M75.0199999,43 L73.6919999,38.872 L74.2279999,38.872 L75.2839999,42.408 L75.2999999,42.408 L76.3079999,38.872 L76.8759999,38.872 L77.8839999,42.408 L77.8999999,42.408 L78.9559999,38.872 L79.4919999,38.872 L78.1639999,43 L77.6119999,43 L76.5959999,39.528 L76.5799999,39.528 L75.5719999,43 L75.0199999,43 Z M81.7479998,39.384 C82.0946682,38.9626646 82.5719968,38.752 83.1799998,38.752 C83.7880029,38.752 84.2653314,38.9613312 84.6119998,39.38 C84.9586682,39.7986688 85.1319998,40.3173302 85.1319998,40.936 C85.1319998,41.5546698 84.9586682,42.0733312 84.6119998,42.492 C84.2653314,42.9106688 83.7880029,43.12 83.1799998,43.12 C82.5719968,43.12 82.0946682,42.9106688 81.7479998,42.492 C81.4013314,42.0733312 81.2279998,41.5546698 81.2279998,40.936 C81.2279998,40.3173302 81.4013314,39.8000021 81.7479998,39.384 Z M84.2439998,39.704 C83.9933319,39.3519982 83.6386688,39.176 83.1799998,39.176 C82.7213309,39.176 82.3653344,39.3506649 82.1119998,39.7 C81.8586652,40.0493351 81.7319998,40.461331 81.7319998,40.936 C81.7319998,41.410669 81.8586652,41.8226649 82.1119998,42.172 C82.3653344,42.5213351 82.7213309,42.696 83.1799998,42.696 C83.6386688,42.696 83.9946652,42.5213351 84.2479998,42.172 C84.5013344,41.8226649 84.6279998,41.410669 84.6279998,40.936 C84.6279998,40.461331 84.5000011,40.0506684 84.2439998,39.704 Z M87.2839998,43 L87.2839998,38.872 L87.7479998,38.872 L87.7479998,39.84 L87.7639998,39.84 C87.8920005,39.5039983 88.0919985,39.2453342 88.3639998,39.064 C88.6360012,38.8826658 88.955998,38.7999999 89.3239998,38.816 L89.3239998,39.32 C88.8759976,39.2986666 88.5080013,39.4306652 88.2199998,39.716 C87.9319984,40.0013348 87.7879998,40.3626645 87.7879998,40.8 L87.7879998,43 L87.2839998,43 Z M91.2039998,43 L91.2039998,37.288 L91.7079998,37.288 L91.7079998,40.872 L93.9959998,38.872 L94.6679998,38.872 L92.9079998,40.4 L94.7879998,43 L94.1559998,43 L92.5239998,40.752 L91.7079998,41.432 L91.7079998,43 L91.2039998,43 Z" id="css-microframework" fill="#000000"></path>
            </g>
        </g>
    </g>
</svg>