<?xml version="1.0" encoding="UTF-8" standalone="no"?>
<!DOCTYPE svg PUBLIC "-//W3C//DTD SVG 1.1//EN" "http://www.w3.org/Graphics/SVG/1.1/DTD/svg11.dtd">
<svg width="128px" height="128px" viewBox="0 0 128 128" version="1.1" xmlns="http://www.w3.org/2000/svg" xmlns:xlink="http://www.w3.org/1999/xlink" xml:space="preserve" xmlns:serif="http://www.serif.com/" style="fill-rule:evenodd;clip-rule:evenodd;stroke-linejoin:round;stroke-miterlimit:2;">
    <g id="Artboard1" transform="matrix(1.91045,0,0,2.66667,-808.119,80)">
        <rect x="423" y="-30" width="67" height="48" style="fill:none;"/>
        <g transform="matrix(0.184096,0,0,0.13189,509.244,-17.4743)">
            <g transform="matrix(1,0,0,1,-423,30)">
                <path d="M163.59,38.806C157.605,38.806 153.148,41.745 153.148,48.818C153.148,54.148 156.086,57.846 163.268,57.846C169.356,57.846 173.49,54.259 173.49,48.598C173.49,42.182 169.79,38.806 163.59,38.806ZM151.62,88.746C150.204,90.484 148.793,92.331 148.793,94.511C148.793,98.859 154.338,100.167 161.955,100.167C168.265,100.167 176.86,99.726 176.86,93.859C176.86,90.372 172.725,90.156 167.5,89.829L151.62,88.746ZM183.821,39.135C185.776,41.638 187.846,45.12 187.846,50.124C187.846,62.199 178.381,69.27 164.677,69.27C161.192,69.27 158.037,68.836 156.081,68.293L152.49,74.058L163.15,74.708C181.972,75.908 193.065,76.453 193.065,90.917C193.065,103.431 182.08,110.497 163.15,110.497C143.46,110.497 135.954,105.493 135.954,96.9C135.954,92.002 138.13,89.397 141.937,85.802C138.347,84.284 137.151,81.566 137.151,78.627C137.151,76.232 138.346,74.057 140.307,71.989C142.265,69.924 144.44,67.854 147.051,65.461C141.721,62.851 137.695,57.194 137.695,49.142C137.695,36.633 145.964,28.042 162.605,28.042C167.284,28.042 170.114,28.472 172.616,29.13L193.831,29.13L193.831,38.374L183.821,39.135ZM212.98,19.366C206.778,19.366 203.189,15.773 203.189,9.57C203.189,3.374 206.778,0 212.98,0C219.29,0 222.88,3.374 222.88,9.57C222.88,15.773 219.29,19.366 212.98,19.366M198.944,84.742L198.944,76.152L204.494,75.392C206.018,75.172 206.234,74.848 206.234,73.212L206.234,41.23C206.234,40.035 205.909,39.27 204.818,38.947L198.944,36.878L200.14,28.069L222.661,28.069L222.661,73.213C222.661,74.957 222.766,75.173 224.402,75.393L229.952,76.153L229.952,84.743L198.944,84.742ZM272.97,80.526C268.29,82.808 261.438,84.876 255.234,84.876C242.289,84.876 237.395,79.658 237.395,67.36L237.395,38.86C237.395,38.209 237.395,37.772 236.521,37.772L228.907,37.772L228.907,28.09C238.484,27 242.288,22.212 243.485,10.354L253.821,10.354L253.821,25.807C253.821,26.566 253.821,26.895 254.693,26.895L270.031,26.895L270.031,37.772L253.821,37.772L253.821,63.77C253.821,70.189 255.347,72.689 261.218,72.689C264.268,72.689 267.419,71.929 270.03,70.949L272.97,80.526Z" style="fill:rgb(65,48,0);fill-rule:nonzero;"/>
            </g>
            <g transform="matrix(1,0,0,1,-423,30)">
                <path d="M111.78,51.977L62.035,2.238C60.66,0.863 58.793,0.089 56.848,0.089C54.903,0.089 53.036,0.863 51.661,2.238L41.332,12.568L54.434,25.67C57.48,24.642 60.971,25.331 63.398,27.759C65.754,30.117 66.56,33.628 65.468,36.778L78.096,49.406C81.151,48.353 84.676,49.033 87.116,51.477C88.753,53.113 89.674,55.335 89.674,57.649C89.674,59.964 88.753,62.186 87.116,63.822C85.479,65.462 83.255,66.385 80.937,66.385C76.148,66.385 72.207,62.444 72.207,57.655C72.207,56.513 72.431,55.383 72.866,54.328L61.09,42.551L61.09,73.542C61.944,73.964 62.723,74.521 63.398,75.192C66.808,78.602 66.808,84.126 63.398,87.541C59.988,90.95 54.46,90.95 51.053,87.541C47.643,84.126 47.643,78.602 51.053,75.193C51.87,74.374 52.842,73.727 53.912,73.288L53.912,42.01C52.84,41.574 51.867,40.926 51.052,40.105C48.552,37.605 47.807,33.822 49.172,30.561L36.255,17.642L2.15,51.747C-0.696,54.594 -0.696,59.278 2.15,62.125L51.892,111.865C54.739,114.709 59.421,114.709 62.268,111.865L111.78,62.36C114.626,59.513 114.626,54.828 111.78,51.981" style="fill:rgb(240,81,51);fill-rule:nonzero;"/>
            </g>
        </g>
    </g>
</svg>
