<?xml version="1.0" encoding="UTF-8"?>
<svg width="128px" height="128px" viewBox="0 0 128 128" version="1.1" xmlns="http://www.w3.org/2000/svg" xmlns:xlink="http://www.w3.org/1999/xlink">
    <!-- Generator: Sketch 51 (57462) - http://www.bohemiancoding.com/sketch -->
    <title>Github Logo</title>
    <desc>Created with Sketch.</desc>
    <defs></defs>
    <g id="Colophon" stroke="none" stroke-width="1" fill="none" fill-rule="evenodd">
        <g id="Github-Logo" fill-rule="nonzero">
            <g id="github-original-wordmark" transform="translate(20.000000, 20.000000)">
                <g id="Group" transform="translate(14.437500, 0.000000)" fill="#181616">
                    <path d="M29.5625,0.352 C13.4110625,0.352 0.3128125,13.4468125 0.3128125,29.6016875 C0.3128125,42.524625 8.6934375,53.488875 20.315625,57.3560625 C21.77725,57.6269375 22.3141875,56.7215 22.3141875,55.94875 C22.3141875,55.251625 22.2866875,52.947125 22.2743125,50.50375 C14.136375,52.2726875 12.4196875,47.0525 12.4196875,47.0525 C11.089375,43.671375 9.1719375,42.772125 9.1719375,42.772125 C6.5181875,40.957125 9.3713125,40.99425 9.3713125,40.99425 C12.309,41.2005 13.855875,44.0089375 13.855875,44.0089375 C16.46425,48.4804375 20.6985625,47.18725 22.367125,46.4399375 C22.6304375,44.5493125 23.3880625,43.2581875 24.22475,42.5280625 C17.727875,41.789 10.89825,39.2803125 10.89825,28.0726875 C10.89825,24.87925 12.040875,22.2701875 13.91225,20.2214375 C13.608375,19.4844375 12.607375,16.5089375 14.1955,12.4801875 C14.1955,12.4801875 16.65125,11.6950625 22.23925,15.47975 C24.5733125,14.8314375 27.0758125,14.50625 29.561125,14.49525 C32.047125,14.5069375 34.551,14.832125 36.8885,15.47975 C42.471,11.69575 44.924,12.480875 44.924,12.480875 C46.51625,16.509625 45.51525,19.4844375 45.211375,20.222125 C47.086875,22.2695 48.22125,24.87925 48.22125,28.073375 C48.22125,39.307125 41.3785625,41.78075 34.8651875,42.504 C35.9143125,43.4115 36.8493125,45.192125 36.8493125,47.9215 C36.8493125,51.83475 36.8163125,54.9841875 36.8163125,55.947375 C36.8163125,56.72425 37.3429375,57.63725 38.8251875,57.349875 C50.4411875,53.477875 58.8108125,42.51775 58.8108125,29.5989375 C58.8121875,13.4475 45.7166875,0.352 29.5625,0.352 Z" id="Shape"></path>
                    <path d="M11.391875,42.34725 C11.3265625,42.493 11.097625,42.5363125 10.89,42.436625 C10.676875,42.340375 10.558625,42.1430625 10.627375,41.996625 C10.68925,41.848125 10.918875,41.8061875 11.1313125,41.905875 C11.3444375,42.002125 11.4654375,42.2015 11.3925625,42.34725 L11.391875,42.34725 Z M12.5764375,43.67 C12.436875,43.7985625 12.1639375,43.73875 11.9783125,43.533875 C11.7871875,43.3296875 11.7514375,43.05675 11.8930625,42.926125 C12.0360625,42.796875 12.30075,42.857375 12.4911875,43.0615625 C12.6836875,43.2678125 12.7215,43.538 12.57575,43.6693125 L12.5764375,43.67 Z M13.729375,45.353 C13.550625,45.478125 13.2570625,45.36125 13.07625,45.1006875 C12.896125,44.8415 12.896125,44.5300625 13.0796875,44.40425 C13.2611875,44.279125 13.5499375,44.391875 13.7328125,44.6496875 C13.9129375,44.914375 13.9129375,45.2271875 13.729375,45.3536875 L13.729375,45.353 Z M15.30925,46.981 C15.1490625,47.1576875 14.807375,47.11025 14.5578125,46.8689375 C14.3020625,46.633125 14.23125,46.2983125 14.3914375,46.121625 C14.554375,45.9449375 14.8974375,45.9944375 15.1490625,46.2336875 C15.4034375,46.4688125 15.4804375,46.8043125 15.30925,46.9803125 L15.30925,46.981 Z M17.49,47.925625 C17.4185,48.15525 17.089875,48.2590625 16.7585,48.162125 C16.427125,48.06175 16.21125,47.793625 16.27725,47.562625 C16.346,47.331625 16.677375,47.2236875 17.0108125,47.3275 C17.3408125,47.4265 17.557375,47.691875 17.4893125,47.925625 L17.49,47.925625 Z M19.8825,48.1009375 C19.8914375,48.3415625 19.61025,48.5423125 19.262375,48.5464375 C18.913125,48.5546875 18.629875,48.3594375 18.62575,48.1215625 C18.62575,47.8781875 18.90075,47.6801875 19.25,47.6746875 C19.597875,47.6678125 19.8825,47.8616875 19.8825,48.1009375 Z M22.11,47.722125 C22.15125,47.95725 21.910625,48.19925 21.5648125,48.2631875 C21.2251875,48.3264375 20.9116875,48.1806875 20.8676875,47.9469375 C20.8264375,47.7063125 21.071875,47.4656875 21.4108125,47.4024375 C21.756625,47.3419375 22.066,47.4835625 22.11,47.7228125 L22.11,47.722125 Z" id="Shape"></path>
                </g>
                <g id="Group" transform="translate(0.000000, 63.250000)" fill="#100E0F">
                    <path d="M17.0878125,10.520125 L9.7315625,10.520125 C9.54171462,10.520125 9.3878125,10.6740271 9.3878125,10.863875 L9.3878125,14.460875 C9.3878125,14.6507229 9.54171462,14.804625 9.7315625,14.804625 L12.6005,14.804625 L12.6005,19.273375 C12.6005,19.273375 11.9563125,19.493375 10.173625,19.493375 C8.072625,19.493375 5.1363125,18.726125 5.1363125,12.269125 C5.1363125,5.8114375 8.1943125,4.961 11.0653125,4.961 C13.5499375,4.961 14.6196875,5.39825 15.3016875,5.6093125 C15.5148125,5.6739375 15.7141875,5.4608125 15.7141875,5.2710625 L16.534375,1.79575 C16.5370699,1.6901225 16.4877316,1.58990404 16.402375,1.527625 C16.1253125,1.329625 14.4381875,0.386375 10.175,0.386375 C5.2635,0.386375 0.2255,2.475 0.2255,12.52075 C0.2255,22.565125 5.993625,24.0618125 10.85425,24.0618125 C14.878875,24.0618125 17.3201875,22.3416875 17.3201875,22.3416875 C17.4205625,22.2866875 17.4315625,22.14575 17.4315625,22.0804375 L17.4315625,10.8631875 C17.4315625,10.6733396 17.2776604,10.5194375 17.0878125,10.5194375 L17.0878125,10.520125 Z M54.660375,1.244375 L50.5175,1.244375 C50.4262119,1.24473851 50.3388175,1.28139888 50.2745898,1.34627146 C50.210362,1.41114404 50.1745765,1.49890031 50.175125,1.5901875 L50.1765,9.5954375 L43.7195,9.5954375 L43.7195,1.5901875 C43.7200487,1.49901884 43.6843574,1.41136643 43.6202782,1.34651365 C43.556199,1.28166087 43.4689812,1.24492037 43.3778125,1.244375 L39.235625,1.244375 C39.1443369,1.24473851 39.0569425,1.28139888 38.9927148,1.34627146 C38.928487,1.41114404 38.8927015,1.49890031 38.89325,1.5901875 L38.89325,23.2670625 C38.89325,23.4575 39.04725,23.612875 39.235625,23.612875 L43.3778125,23.612875 C43.4691011,23.6123302 43.5564238,23.5754952 43.6205228,23.5104934 C43.6846218,23.4454916 43.7202319,23.3576623 43.7195,23.266375 L43.7195,13.99475 L50.1765,13.99475 L50.1655,23.266375 C50.1655,23.4575 50.3195,23.612875 50.50925,23.612875 L54.660375,23.612875 C54.7516636,23.6123302 54.8389863,23.5754952 54.9030853,23.5104934 C54.9671843,23.4454916 55.0027944,23.3576623 55.0020625,23.266375 L55.0020625,1.5895 C55.0020625,1.398375 54.8508125,1.244375 54.660375,1.244375 Z M22.23375,1.7373125 C20.75975,1.7373125 19.5635,2.9425 19.5635,4.434375 C19.5635,5.9241875 20.75975,7.1328125 22.23375,7.1328125 C23.709125,7.1328125 24.9046875,5.9241875 24.9046875,4.434375 C24.9046875,2.9425 23.7084375,1.7373125 22.23375,1.7373125 Z M24.266,8.3428125 L20.136875,8.3428125 C19.947125,8.3428125 19.778,8.5380625 19.778,8.7278125 L19.778,23.0635625 C19.778,23.485 20.040625,23.610125 20.38025,23.610125 L24.099625,23.610125 C24.5086875,23.610125 24.608375,23.409375 24.608375,23.0566875 L24.608375,18.6938125 L24.608375,8.688625 C24.6087404,8.59745661 24.572874,8.50987716 24.508666,8.44515351 C24.4444581,8.38042986 24.3571684,8.34386394 24.266,8.3435 L24.266,8.3428125 Z M70.745125,8.375125 L66.633875,8.375125 C66.5427059,8.37585144 66.4555598,8.4127664 66.3916093,8.47774839 C66.3276587,8.54273038 66.2921427,8.63045596 66.292875,8.721625 L66.292875,19.350375 C66.292875,19.350375 65.247875,20.1135 63.7663125,20.1135 C62.28475,20.1135 61.8915,19.4418125 61.8915,17.9905 L61.8915,8.721625 C61.8922319,8.63033766 61.8566218,8.54250839 61.7925228,8.4775066 C61.7284238,8.41250481 61.6411011,8.37566981 61.5498125,8.375125 L57.3780625,8.375125 C57.1879927,8.37663802 57.0349242,8.53155067 57.0356875,8.721625 L57.0356875,18.69175 C57.0356875,23.002375 59.4385,24.057 62.7433125,24.057 C65.4548125,24.057 67.6410625,22.55825 67.6410625,22.55825 C67.6410625,22.55825 67.7441875,23.348875 67.7923125,23.4416875 C67.8404375,23.5351875 67.962125,23.629375 68.0948125,23.629375 L70.7485625,23.6176875 C70.8400956,23.6173236 70.927735,23.5806128 70.9922008,23.5156313 C71.0566666,23.4506497 71.0926779,23.3627206 71.0923125,23.2711875 L71.09025,8.7195625 C71.0895029,8.52980096 70.936257,8.37594209 70.7465,8.3744375 L70.745125,8.375125 Z M81.98025,7.888375 C79.6455,7.888375 78.057375,8.9299375 78.057375,8.9299375 L78.057375,1.5895 C78.0579237,1.49833134 78.0222324,1.41067893 77.9581532,1.34582615 C77.894074,1.28097337 77.8068562,1.24423287 77.7156875,1.2436875 L73.5625,1.2436875 C73.4709734,1.24368585 73.3832252,1.28018525 73.3186999,1.34509765 C73.2541747,1.41001005 73.2182008,1.497975 73.21875,1.5895 L73.21875,23.266375 C73.2182008,23.3579 73.2541747,23.445865 73.3186999,23.5107773 C73.3832252,23.5756897 73.4709734,23.6121891 73.5625,23.6121875 L76.4445,23.6121875 C76.575125,23.6121875 76.67275,23.5455 76.7449375,23.4279375 C76.81575,23.3110625 76.9195625,22.4283125 76.9195625,22.4283125 C76.9195625,22.4283125 78.6176875,24.0370625 81.8338125,24.0370625 C85.6081875,24.0370625 87.7738125,22.1230625 87.7738125,15.4419375 C87.7738125,8.7608125 84.3156875,7.8876875 81.9795625,7.8876875 L81.98025,7.888375 Z M80.35775,20.101125 C78.9325625,20.0578125 77.96525,19.410875 77.96525,19.410875 L77.96525,12.5461875 C77.96525,12.5461875 78.9195,11.9618125 80.089625,11.8559375 C81.5698125,11.72325 82.996375,12.1708125 82.996375,15.7018125 C82.996375,19.426 82.3535625,20.1609375 80.3584375,20.1004375 L80.35775,20.101125 Z M36.5715625,20.02 C36.39075,20.02 35.927375,20.0935625 35.4509375,20.0935625 C33.9246875,20.0935625 33.407,19.3840625 33.407,18.4655625 L33.407,12.3701875 L36.5145,12.3701875 C36.6061466,12.3701904 36.6940002,12.3335968 36.7585454,12.2685351 C36.8230907,12.2034735 36.8589832,12.1153312 36.85825,12.0236875 L36.85825,8.6851875 C36.8586156,8.59378133 36.8225607,8.50599352 36.7580554,8.44123019 C36.6935501,8.37646687 36.6059069,8.34006177 36.5145,8.3400625 L33.407,8.3400625 L33.4021875,4.2356875 C33.4021875,4.079625 33.3224375,4.0019375 33.1423125,4.0019375 L28.9073125,4.0019375 C28.7436875,4.0019375 28.655,4.0748125 28.655,4.23225 L28.655,8.474125 C28.655,8.474125 26.5326875,8.9863125 26.3896875,9.0275625 C26.2430208,9.07034028 26.1421875,9.20478472 26.1421875,9.3575625 L26.1421875,12.023 C26.1416388,12.1141687 26.1773301,12.2018211 26.2414093,12.2666738 C26.3054885,12.3315266 26.3927063,12.3682671 26.483875,12.3688125 L28.655,12.3688125 L28.655,18.7818125 C28.655,23.5461875 31.99625,24.0136875 34.25125,24.0136875 C35.2804375,24.0136875 36.513125,23.6836875 36.716625,23.6080625 C36.840375,23.562 36.9111875,23.4348125 36.9111875,23.296625 L36.9139375,20.3644375 C36.9110107,20.1755887 36.7590231,20.0229932 36.5701875,20.0193125 L36.5715625,20.02 Z" id="Shape"></path>
                </g>
            </g>
        </g>
    </g>
</svg>