<?xml version="1.0" encoding="UTF-8"?>
<svg width="128px" height="128px" viewBox="0 0 128 128" version="1.1" xmlns="http://www.w3.org/2000/svg" xmlns:xlink="http://www.w3.org/1999/xlink">
    <!-- Generator: Sketch 51 (57462) - http://www.bohemiancoding.com/sketch -->
    <title>Gulp Logo</title>
    <desc>Created with Sketch.</desc>
    <defs></defs>
    <g id="Colophon" stroke="none" stroke-width="1" fill="none" fill-rule="evenodd">
        <g id="Gulp-Logo" fill-rule="nonzero">
            <g id="68747470733a2f2f63646e2e776f726c64766563746f726c6f676f2e636f6d2f6c6f676f732f67756c702e737667" transform="translate(39.000000, 8.000000)">
                <path d="M38.811119,108.619236 L39.882957,90.6904015 L42.8425095,85.618859 C42.8425095,85.618859 36.1065403,88.3850107 24.8294307,88.3850107 C13.5521236,88.3850107 6.91826253,85.6700106 6.91826253,85.6700106 L10.2350943,91.202314 L11.4084478,108.619236 C11.4084478,110.486468 17.5426313,112 25.1098822,112 C32.676738,112 38.811119,110.486468 38.811119,108.619236 M35.4300994,24.8941759 L37.6798333,15.9674284 L50.1383939,2.80758848 L46.8547423,0 L33.6648355,14.0185127 L31.0526873,24.6836216 C29.0867295,24.6174946 27.1198009,24.5846445 25.1527399,24.5850854 C11.2613095,24.5850854 0,26.1743537 0,28.1343721 C0,30.0945887 11.2613095,31.6836588 25.1527399,31.6836588 C39.0439727,31.6836588 50.3050847,30.0945887 50.3050847,28.1343721 C50.3050847,26.6910246 44.1975638,25.4487147 35.4300994,24.8941759" id="Shape" fill="#D34A47"></path>
                <path d="M34.0984279,29.3408864 C34.0984279,29.3408864 33.6378843,29.4187585 32.2831356,29.4231239 C30.9280136,29.4273484 29.9658564,29.4165055 29.582599,29.1531765 C29.4795508,29.082486 29.4231729,28.9420908 29.4237329,28.8470389 C29.424853,28.6660883 29.5951067,28.5594893 29.8120308,28.4927417 L30.0171939,28.7355114 C29.9279601,28.7587463 29.876996,28.7862057 29.8768093,28.8154958 C29.8760626,28.9529338 31.2623604,29.047 32.3227122,29.0368611 C33.3832506,29.0270039 34.6646333,28.9611012 34.6657534,28.8256346 C34.6657534,28.7846567 34.5688657,28.7460727 34.4002921,28.7156561 L34.6045218,28.4745763 C34.8793172,28.5389299 35.1192031,28.6632719 35.1186431,28.8784413 C35.1160295,29.2442855 34.49886,29.2999085 34.0984279,29.3408864" id="Shape" fill="#FFFFFF"></path>
                <path d="M50.2081806,2.97993049 C50.5231111,2.61661944 50.0451555,1.68732056 49.1406735,0.904575647 C48.2357944,0.122227358 47.2469206,-0.217682646 46.9313944,0.145628397 C46.6162654,0.50893944 47.0944196,1.43823832 47.9992987,2.22058661 C48.9037806,3.00313321 49.8930516,3.34343984 50.2081806,2.97993049 M38.2418148,64.9889154 C37.9449541,62.1363684 44.4891938,58.0050935 42.8096969,57.8728181 C39.1941519,58.0792629 37.3947193,62.1044399 35.5756284,66.3201965 C34.9090322,67.86526 32.6280696,74.453644 31.1320505,73.6425402 C29.6364286,72.831833 33.0710772,67.4140959 34.0337398,64.1966514 C32.9229447,65.010135 28.8493009,68.17106 27.7994664,65.2108286 C26.1116296,66.6424566 22.5050202,67.4180622 22.9118882,63.6574359 C22.013959,65.2459302 19.9986818,67.4636744 17.5797139,66.5421097 C14.4030064,65.3321967 19.4204488,55.2259227 20.6680581,55.7357877 C21.9158659,56.2454544 20.4162725,58.5476803 20.023503,59.4416793 C19.1597277,61.4091514 18.1619183,63.8825222 18.8285145,64.3888175 C19.970485,65.2562425 23.0780904,61.1073176 23.1471925,61.0160933 C23.728404,60.2492134 25.3842712,55.2320704 26.7188537,55.8081722 C28.0534362,56.3842741 23.3900424,63.0085529 25.1336771,64.3231757 C25.4853429,64.5885196 26.9241741,64.1595667 27.7994664,63.2138078 C28.3657853,62.6020094 28.1709891,61.2469306 30.0587849,56.7507581 C31.9465807,52.254784 33.6290562,46.6555897 34.9237263,47.0821628 C36.2183964,47.5085377 35.1512864,50.3823043 34.6868334,51.4535959 C32.5073397,56.4816462 28.7384994,64.78842 30.5158908,64.1595667 C32.2932822,63.5309117 33.2188125,63.4940253 34.9592701,61.4599197 C36.6997277,59.4258142 36.6195058,56.075301 37.7795461,56.1464957 C38.9399836,56.2178887 38.7451874,57.2921551 38.463815,58.1101998 C39.605587,56.8052945 43.8760127,54.0570606 44.9069831,56.7789187 C46.1281827,60.0013211 38.7972124,64.6559464 40.6250404,64.4185646 C42.4071975,64.1871323 45.2943913,62.3608597 46.5271079,60.7003775 L49.9202555,30.2342081 C49.9202555,30.2342081 46.505861,33.0562148 24.7835999,33.0562148 C3.06114025,33.0562148 0,30.2929091 0,30.2929091 L2.88878233,58.1012757 C4.42213242,53.7488808 8.06329283,44.9453307 13.8027322,45.2408184 C16.4135179,45.3752752 19.8988016,50.3959879 16.9133162,50.5661412 C15.6496228,50.6379309 15.5213472,48.0600486 14.024931,47.6814674 C12.9451126,47.4081909 11.4417464,48.2849366 10.4701481,49.2348601 C8.53251146,51.1287577 4.36514311,58.6010267 4.91577504,62.3263531 C5.61731945,67.0757724 11.4780845,60.6759849 12.4697383,58.7759396 C13.1681056,57.4375191 13.6399056,53.4720346 15.1672986,53.8880972 C16.6948902,54.3041597 15.0340588,58.3965651 13.9268379,62.014802 C12.6830014,66.0776586 12.0291136,70.3634201 10.4701481,69.8704117 C8.91098404,69.3778 11.450682,64.1327943 11.3587445,63.2138078 C9.89330506,64.564127 7.19356045,67.9826618 3.73965065,66.2906477 L5.53372188,83.5594245 C5.53372188,83.5594245 10.3019601,87.3220339 24.6658485,87.3220339 C39.0297368,87.3220339 43.9745029,83.6181254 43.9745029,83.6181254 L46.2022489,63.6167816 C44.3795837,65.3893111 38.6111533,68.5369491 38.2418148,64.9889154" id="Shape" fill="#D34A47"></path>
            </g>
        </g>
    </g>
</svg>