<?xml version="1.0" encoding="UTF-8"?>
<svg width="128px" height="128px" viewBox="0 0 128 128" version="1.1" xmlns="http://www.w3.org/2000/svg" xmlns:xlink="http://www.w3.org/1999/xlink">
    <!-- Generator: Sketch 51 (57462) - http://www.bohemiancoding.com/sketch -->
    <title>HTML5 Boilerplate Logo</title>
    <desc>Created with Sketch.</desc>
    <defs></defs>
    <g id="Colophon" stroke="none" stroke-width="1" fill="none" fill-rule="evenodd">
        <g id="HTML5-Boilerplate-Logo" fill-rule="nonzero">
            <g id="html5-boilerplate-logo-svg-vector" transform="translate(20.000000, 20.000000)">
                <polygon id="Shape" fill="#222222" points="0 0 88 0 88 88 0 88"></polygon>
                <polyline id="Shape" fill="#E08524" points="39.7434257 12.2790698 31.9196573 34.6177098 8.18604651 34.6831236 27.4206179 48.8806873 20.5085078 71.8042444 39.9388553 58.0638851 59.892081 72.6511628 52.5880722 48.8152735 71.627907 34.6177098 47.9594394 34.6831236 39.7437722 12.2790698"></polyline>
                <polyline id="Shape" fill="#466770" points="39.9069767 12.2790698 47.7150067 15.9572256 54.2325581 33.7674419 47.7794792 33.7674419 39.9069767 12.2804414"></polyline>
                <polyline id="Shape" fill="#304A51" points="54.2325581 48.455166 62.0113034 52.1860465 80.8372093 38.8360884 73.058464 34.7906977 54.2325581 48.455166"></polyline>
                <polyline id="Shape" fill="#466770" points="54.2325581 49.1162791 62.1222816 52.9332152 69.5813953 76.744186 61.422935 72.6481138 54.2325581 49.1169709"></polyline>
                <polyline id="Shape" fill="#304A51" points="21.4883721 72.0545435 39.6722627 59.3488372 46.0465116 63.9632305 28.8650993 75.7209302 21.4883721 72.0545435"></polyline>
            </g>
        </g>
    </g>
</svg>