<?xml version="1.0" encoding="UTF-8"?>
<svg width="128px" height="128px" viewBox="0 0 128 128" version="1.1" xmlns="http://www.w3.org/2000/svg" xmlns:xlink="http://www.w3.org/1999/xlink">
    <!-- Generator: Sketch 51 (57462) - http://www.bohemiancoding.com/sketch -->
    <title>jQuery Logo</title>
    <desc>Created with Sketch.</desc>
    <defs></defs>
    <g id="Colophon" stroke="none" stroke-width="1" fill="none" fill-rule="evenodd">
        <g id="jQuery-Logo" fill-rule="nonzero">
            <g id="jquery-original-wordmark" transform="translate(20.000000, 17.000000)">
                <path d="M16.506069,14.7331724 C10.9286897,22.748 11.6228276,33.1767586 15.884,41.6945517 L16.1957931,42.299931 L16.3953103,42.6837931 L16.5197241,42.9045517 L16.742,43.302069 C16.874,43.5349655 17.0097931,43.7663448 17.1486207,43.9992414 L17.3807586,44.3815862 C17.5347586,44.6288966 17.6917931,44.8746897 17.8526207,45.1197241 L18.0536552,45.43 C18.275931,45.7615172 18.5027586,46.0915172 18.7371724,46.4169655 L18.7568966,46.442 L18.8722069,46.5975172 C19.0747586,46.8766897 19.2833793,47.1528276 19.4950345,47.4266897 L19.7294483,47.7248276 C19.9183448,47.9622759 20.1102759,48.1974483 20.3052414,48.4333793 L20.5252414,48.6958621 C20.7869655,49.0038621 21.0547586,49.3118621 21.3271034,49.6122759 L21.3430345,49.6289655 L21.3741379,49.6631034 C21.6404138,49.9536552 21.9127586,50.2381379 22.1896552,50.5226207 L22.4506207,50.7858621 C22.6645517,51.0013103 22.8822759,51.2129655 23.1015172,51.4238621 L23.3677931,51.6772414 C23.6613793,51.9533793 23.9572414,52.2249655 24.259931,52.4889655 L24.2735862,52.5011034 L24.4291034,52.6331034 C24.6953793,52.8644828 24.9662069,53.092069 25.2393103,53.3173793 L25.5746207,53.5851724 C25.7976552,53.7634483 26.0229655,53.9402069 26.2497931,54.1131724 L26.6116552,54.3870345 C26.862,54.5713793 27.1146207,54.7526897 27.3695172,54.9309655 L27.6448966,55.1266897 L27.7215172,55.1813103 C27.9627586,55.3482069 28.2108276,55.5082759 28.4573793,55.6683448 L28.776,55.8807586 C29.1553103,56.1197241 29.539931,56.3571724 29.9283448,56.5862759 L30.2469655,56.766069 C30.5329655,56.9306897 30.8204828,57.0930345 31.1117931,57.2508276 L31.5904828,57.4981379 L32.2095172,57.8197931 L32.3521379,57.8888276 L32.6055172,58.0109655 C32.9294483,58.1657241 33.2564138,58.3182069 33.5864138,58.4653793 L33.7935172,58.557931 C34.1713103,58.7233103 34.5528966,58.8818621 34.9375172,59.0343448 L35.2166897,59.1435862 C35.5724828,59.2816552 35.9335862,59.415931 36.2962069,59.5433793 L36.432,59.5904138 C36.8295172,59.73 37.2315862,59.8582069 37.635931,59.9848966 L37.9264828,60.0713793 C38.3376552,60.1957931 38.7450345,60.3429655 39.1691034,60.4218621 C66.1403448,65.34 73.9746207,44.2146897 73.9746207,44.2146897 C67.3943448,52.7871034 55.7153793,55.0477931 44.6493793,52.5306897 C44.2298621,52.4358621 43.8232414,52.3046207 43.4143448,52.1847586 L43.1063448,52.0906897 C42.7073103,51.9685517 42.3105517,51.8403448 41.9168276,51.7037931 L41.7537241,51.6453793 C41.4009655,51.5209655 41.0527586,51.3904828 40.7053103,51.2562069 L40.4109655,51.1408966 C40.0308966,50.9906897 39.6523448,50.8336552 39.2791034,50.6705517 L39.0530345,50.5696552 C38.7321379,50.4247586 38.4142759,50.2783448 38.097931,50.1258621 L37.8217931,49.9931034 C37.5737241,49.8724828 37.3286897,49.7442759 37.0828966,49.6175862 L36.5905517,49.3588966 C36.2908966,49.1995862 35.9973103,49.0326897 35.7052414,48.8627586 L35.4063448,48.6966207 C35.0171724,48.4667586 34.6333103,48.230069 34.2532414,47.9895862 L33.9422069,47.7824828 C33.6668276,47.6049655 33.3922069,47.4236552 33.1221379,47.2370345 L32.8573793,47.0511724 C32.5964138,46.8675862 32.3377241,46.6802069 32.082069,46.4913103 L31.7384138,46.2311034 C31.5032414,46.0513103 31.2695862,45.87 31.0389655,45.6841379 L30.7271724,45.4337931 C30.4328276,45.1925517 30.1422759,44.9482759 29.8555172,44.6986897 L29.759931,44.6190345 C29.4496552,44.3466897 29.1446897,44.0667586 28.8435172,43.786069 L28.5855862,43.5372414 C28.3625517,43.3255862 28.1425517,43.1116552 27.9271034,42.8916552 L27.6691724,42.6337241 C27.3945517,42.3530345 27.1252414,42.0685517 26.8612414,41.7795172 L26.8210345,41.7362759 C26.5418621,41.4313103 26.2687586,41.1195172 26.0017241,40.803931 L25.7870345,40.5490345 C25.5875172,40.3093103 25.3902759,40.0650345 25.1975862,39.82 L24.9813793,39.5506897 C24.7484828,39.2495172 24.5224138,38.9491034 24.3001379,38.6441379 C18.1568276,30.2636552 15.9492414,18.7053103 20.8597931,9.21344828 M33.8177931,7.97993103 C29.7849655,13.7833793 30.0034483,21.553931 33.1502069,27.6911724 C33.6774483,28.7198621 34.2706897,29.7189655 34.9337241,30.6687586 C35.5375862,31.5358621 36.2082069,32.566069 37.010069,33.2617241 C37.3006207,33.5818621 37.6048276,33.8944138 37.9151034,34.2008966 L38.1533103,34.4368276 C38.4544828,34.7288966 38.7609655,35.0164138 39.0773103,35.2955862 L39.1152414,35.3282069 L39.1243448,35.3373103 C39.4748276,35.6445517 39.8366897,35.9396552 40.2038621,36.2309655 L40.4488966,36.4221379 C40.8175862,36.7043448 41.1931034,36.982 41.5784828,37.2467586 L41.6111034,37.2717931 L42.1269655,37.6108966 L42.3712414,37.7724828 C42.6466207,37.9492414 42.9250345,38.1206897 43.2087586,38.2853103 L43.3271034,38.3551034 C43.5713793,38.4954483 43.8186897,38.6335172 44.0667586,38.7685517 L44.33,38.9051034 L44.8473793,39.1736552 L44.9255172,39.2093103 C45.2813103,39.3837931 45.6393793,39.5529655 46.0057931,39.7122759 L46.244,39.8108966 C46.5368276,39.9345517 46.831931,40.055931 47.1293103,40.1697241 L47.5086207,40.3093103 C47.7786897,40.4094483 48.0487586,40.5012414 48.3218621,40.5922759 L48.6890345,40.7098621 C49.0766897,40.8297241 49.4605517,40.9822069 49.8641379,41.0497241 C70.6882759,44.4991724 75.4956552,28.4657241 75.4956552,28.4657241 C71.1624138,34.7076552 62.7697931,37.6852414 53.8142759,35.3608276 C53.4167586,35.2561379 53.0237931,35.1423448 52.6346207,35.0202069 L52.2803448,34.9056552 C52.0034483,34.8168966 51.728069,34.7213103 51.4557241,34.621931 L51.0832414,34.4831034 C50.7843448,34.3677931 50.4884828,34.2486897 50.1948966,34.1242759 L49.955931,34.0233793 C49.588,33.8633103 49.2261379,33.6941379 48.8695862,33.5181379 L48.3248966,33.2412414 L48.0108276,33.0796552 C47.7786897,32.9537241 47.548069,32.8232414 47.3212414,32.6897241 L47.1566207,32.5964138 C46.8744138,32.4317931 46.5967586,32.2626207 46.3221379,32.0866207 L46.0702759,31.9189655 L45.5301379,31.5608966 C45.1462759,31.2961379 44.7722759,31.0192414 44.4043448,30.7377931 L44.1509655,30.5375172 C40.2311724,27.4431034 37.1238621,23.2130345 35.6468276,18.4170345 C34.0984828,13.4427586 34.4322759,7.85931034 37.1147586,3.32731034 M48.378,2.93434483 C46.0004828,6.43310345 45.7668276,10.7792414 47.4168276,14.6436552 C49.1563448,18.7455172 52.7211034,21.9628276 56.8821379,23.4891724 L57.3995172,23.6674483 L57.6271034,23.7402759 C57.8721379,23.8176552 58.1156552,23.9071724 58.3690345,23.9542069 C69.8674483,26.1762069 72.9861379,18.0544138 73.816069,16.858069 C71.0842759,20.7915172 66.4931034,21.736 60.8595862,20.3682069 C60.4150345,20.2604828 59.9257241,20.0996552 59.4971034,19.9471724 C58.9471034,19.7506897 58.4054483,19.5276552 57.8782069,19.2750345 C56.8783448,18.794069 55.9247586,18.2114483 55.0402069,17.5438621 C49.9991724,13.7188966 46.8683448,6.42324138 50.1577241,0.480965517" id="Shape" fill="#0868AC"></path>
                <path d="M45.7895862,72.2927586 L42.5836552,72.2927586 C42.4061379,72.2927586 42.2293793,72.4353793 42.1914483,72.6091034 L41.0535172,77.873931 L39.9155862,83.1387586 C39.8784138,83.3124828 39.7016552,83.4551034 39.5241379,83.4551034 L37.2551034,83.4551034 C35.0103448,83.4551034 35.2697931,81.9022069 35.7295172,79.7750345 L35.7431724,79.7105517 L35.7932414,79.442 L35.8023448,79.391931 L35.9047586,78.8457241 L36.0147586,78.2608276 L36.1315862,77.6653103 L36.6489655,75.1375862 L37.1671034,72.6098621 C37.2027586,72.4353793 37.085931,72.292 36.9084138,72.292 L33.6182759,72.292 C33.4407586,72.292 33.2647586,72.4346207 33.2283448,72.6091034 L32.5205517,75.9652414 L31.8135172,79.3221379 L31.812,79.3266897 L31.7467586,79.6392414 C30.932,83.3587586 31.1474483,86.9068276 35.5762759,87.0183448 L35.7052414,87.0206207 L42.6564828,87.0206207 C42.834,87.0206207 43.0107586,86.878 43.047931,86.7042759 L44.5469655,79.6574483 L46.046,72.6098621 C46.0831724,72.4353793 45.9678621,72.2935172 45.7895862,72.2927586 Z M11.4574483,72.2555862 L7.93744828,72.2555862 C7.75917241,72.2555862 7.58165517,72.3982069 7.5422069,72.5711724 L7.20841379,74.0444138 L6.87462069,75.5176552 C6.83593103,75.6913793 6.94896552,75.8332414 7.12724138,75.8332414 L10.6745517,75.8332414 C10.8528276,75.8332414 11.0295862,75.6906207 11.0675172,75.5168966 L11.389931,74.0444138 L11.7123448,72.571931 C11.7495172,72.3982069 11.6357241,72.2555862 11.4574483,72.2555862 Z M10.4363448,76.8406897 L6.88827586,76.8406897 C6.71075862,76.8406897 6.53248276,76.9833103 6.49303448,77.1562759 L5.99462069,79.3638621 L5.49696552,81.5706897 L5.35813793,82.2033793 L4.87944828,84.4564828 L4.40151724,86.7103448 C4.36434483,86.884069 4.28772414,87.1647586 4.23082759,87.3331724 C4.23082759,87.3331724 3.5677931,89.3055862 2.45337931,89.2828276 L2.3137931,89.2797931 L1.34958621,89.2623448 L1.34882759,89.2623448 C1.17131034,89.260069 0.993034483,89.3988966 0.951310345,89.5711034 L0.58337931,91.117931 L0.216206897,92.664 C0.174482759,92.8369655 0.286758621,92.9795862 0.463517241,92.9826207 C1.09544828,92.9902069 2.51103448,93.0061379 3.36751724,93.0061379 C6.15089655,93.0061379 7.61882759,91.4638621 8.55875862,87.025931 L9.65951724,81.9325517 L10.692,77.1555172 C10.7291724,76.9833103 10.6138621,76.8406897 10.4363448,76.8406897 Z M75.7664828,75.6466207 L75.6193103,75.0389655 L75.4744138,74.4168966 L75.4008276,74.1028276 C75.1125517,72.9823448 74.2666897,72.3367586 72.4293103,72.3367586 L69.5693103,72.3337241 L66.9353793,72.329931 L63.9714483,72.329931 C63.793931,72.329931 63.617931,72.4725517 63.5807586,72.6462759 L63.4495172,73.2653103 L63.2947586,73.9966207 L63.2515172,74.2022069 L61.9171034,80.4532414 L60.6502069,86.3871724 C60.6122759,86.5616552 60.6001379,86.7755862 60.6213793,86.862069 C60.6426207,86.9493103 60.9847586,87.0206207 61.1622759,87.0206207 L63.8356552,87.0206207 C64.013931,87.0206207 64.2392414,86.9887586 64.3363448,86.9493103 C64.4334483,86.9098621 64.5768276,86.5601379 64.6124828,86.3864138 L65.0873793,84.0354483 L65.5630345,81.6837241 L65.5637931,81.679931 L65.6275172,81.3666207 L66.204069,78.665931 L66.7131034,76.2808276 C66.7510345,76.1071034 66.9262759,75.9652414 67.1037931,75.9644828 L75.5161379,75.9606897 C75.6944138,75.9622069 75.8066897,75.8203448 75.7664828,75.6466207 Z M86.5957931,70.1542069 L85.947931,70.1564828 L83.2555862,70.1564828 C83.0773103,70.1564828 82.8489655,70.2771034 82.7495862,70.4242759 L76.7951724,79.1468966 C76.6950345,79.294069 76.5804828,79.2728276 76.5410345,79.0998621 L76.1025517,77.1782759 C76.0631034,77.0045517 75.8848276,76.8626897 75.7065517,76.8626897 L71.8793103,76.8626897 C71.7010345,76.8626897 71.5955862,77.0022759 71.6441379,77.1729655 L73.3593793,83.182 C73.407931,83.3534483 73.4117241,83.6341379 73.3677241,83.8071034 L72.6204828,86.7148966 C72.5757241,86.8878621 72.6849655,87.0282069 72.8632414,87.0282069 L76.6464828,87.0282069 C76.824,87.0282069 77.006069,86.8871034 77.050069,86.7148966 L77.798069,83.8071034 C77.842069,83.6333793 77.9657241,83.3769655 78.0734483,83.2343448 L87.7397931,70.4053103 C87.8475172,70.2626897 87.7891034,70.1466207 87.6115862,70.1481379 L86.5957931,70.1542069 Z M56.1857241,77.6789655 L56.1857241,77.675931 C56.1637241,77.8686207 55.9854483,78.0104828 55.8071724,78.0104828 L50.9542759,78.0104828 C50.7858621,78.0104828 50.7008966,77.8966897 50.725931,77.7555862 L50.7304828,77.7442069 L50.7274483,77.7457241 L50.7297241,77.7297931 L50.7517241,77.6471034 C51.2152414,76.4151034 52.1589655,75.6064138 53.9333793,75.6064138 C55.9315862,75.6056552 56.3215172,76.5812414 56.1857241,77.6789655 Z M54.7617931,72.0773103 C48.5327586,72.0773103 47.0564828,75.8582759 46.228069,79.6748966 C45.4004138,83.5651034 45.4709655,87.2011724 51.9177241,87.2011724 L52.6991034,87.2011724 L52.8933103,87.2004138 L52.9388276,87.2004138 L53.7126207,87.1981379 L53.7262759,87.1981379 C55.4286207,87.1913103 57.1362759,87.1784138 57.8273793,87.1731034 C58.0041379,87.170069 58.1771034,87.0282069 58.2135172,86.8544828 L58.4744828,85.5792414 L58.5253103,85.3311724 L58.8363448,83.8093793 C58.872,83.6356552 58.755931,83.4922759 58.5776552,83.4922759 L52.7825517,83.4922759 C50.4771034,83.4922759 49.7928276,82.880069 50.0454483,81.0791034 L59.3089655,81.0791034 L59.3082069,81.0798621 L59.3142759,81.0791034 C59.4614483,81.0768276 59.598,80.9751724 59.6518621,80.8401379 L59.6738621,80.7597241 L59.6731034,80.7604828 C61.0484828,75.5722759 60.654,72.078069 54.7617931,72.0773103 Z M25.3197241,77.6592414 L25.2317241,77.9695172 L25.2317241,77.9702759 L24.5322759,80.4494483 L23.8328276,82.9278621 C23.7850345,83.100069 23.5991724,83.2396552 23.4208966,83.2396552 L19.7188276,83.2396552 C16.9104138,83.2396552 16.2261379,81.0426897 16.9104138,77.8033793 C17.593931,74.4897241 18.9344138,72.430069 21.6988276,72.2214483 C25.4767586,71.9362069 26.2323448,74.5928966 25.3197241,77.6592414 Z M27.8595862,83.0492414 C27.8595862,83.0492414 29.6051724,78.810069 30.0011724,76.3627586 C30.542069,73.0862759 28.9011724,68.3327586 22.5636552,68.3327586 C16.2625517,68.3327586 13.5254483,72.870069 12.4815862,77.8033793 C11.4377241,82.7723448 12.8055172,87.1291034 19.0709655,87.0934483 L24.0141379,87.0752414 L28.6333793,87.0585517 C28.8108966,87.0570345 28.9929655,86.915931 29.0384828,86.7444828 L29.8433793,83.6751034 C29.8881379,83.5021379 29.7796552,83.3610345 29.6013793,83.3595172 L28.8298621,83.3549655 L28.0583448,83.3504138 C27.9073793,83.3496552 27.8208966,83.2510345 27.8391034,83.1213103 L27.8595862,83.0492414 Z M59.054069,80.2112414 C59.054069,80.3288276 58.9592414,80.4244138 58.8416552,80.4244138 C58.7248276,80.4244138 58.6292414,80.3288276 58.6292414,80.2112414 C58.6292414,80.0944138 58.724069,79.9995862 58.8416552,79.9995862 C58.9592414,79.9995862 59.054069,80.0944138 59.054069,80.2112414 Z" id="Shape" fill="#131B28"></path>
            </g>
        </g>
    </g>
</svg>