<?xml version="1.0" encoding="UTF-8"?>
<svg width="128px" height="128px" viewBox="0 0 128 128" version="1.1" xmlns="http://www.w3.org/2000/svg" xmlns:xlink="http://www.w3.org/1999/xlink">
    <!-- Generator: Sketch 51 (57462) - http://www.bohemiancoding.com/sketch -->
    <title>Nunjucks Logo</title>
    <desc>Created with Sketch.</desc>
    <defs></defs>
    <g id="Colophon" stroke="none" stroke-width="1" fill="none" fill-rule="evenodd">
        <g id="Nunjucks-Logo" fill="#264A31">
            <polygon id="Path-Copy" points="41.32 59.32 41.32 74.224 37 74.224 37 58"></polygon>
            <path d="M42.9801855,56.9496851 C42.9801855,59.5526529 39.9801855,59.5526529 39.9801855,56.9496851 C39.9801855,54.3467173 39.9801855,54.8568005 39.9801855,54.4819128 C39.9801855,51.2506424 42.9801855,51.2506424 42.9801855,54.4819128 C42.9801855,54.9357076 42.9801855,56.3202899 42.9801855,56.9496851 Z M41.9801855,56.80846 C41.9801855,56.2241122 41.9801855,54.7297756 41.9801855,54.30846 C41.9801855,53.05846 40.9801855,53.05846 40.9801855,54.30846 C40.9801855,54.656516 40.9801855,56.4321837 40.9801855,56.80846 C40.9801855,58.05846 41.9801855,58.05846 41.9801855,56.80846 Z" id="Combined-Shape" transform="translate(41.480185, 55.480185) rotate(45.000000) translate(-41.480185, -55.480185) "></path>
            <path d="M41,60.8912251 C41,63.4941929 38,63.4941929 38,60.8912251 C38,58.2882573 38,58.7983405 38,58.4234528 C38,55.1921824 41,55.1921824 41,58.4234528 C41,58.8772476 41,60.2618299 41,60.8912251 Z M40,60.75 C40,60.1656523 40,58.6713156 40,58.25 C40,57 39,57 39,58.25 C39,58.598056 39,60.3737237 39,60.75 C39,62 40,62 40,60.75 Z" id="Combined-Shape-Copy-3"></path>
            <path d="M46.9217255,55.9694996 C46.9217255,58.5724674 43.9217255,58.5724674 43.9217255,55.9694996 C43.9217255,53.3665318 43.9217255,53.876615 43.9217255,53.5017273 C43.9217255,50.2704569 46.9217255,50.2704569 46.9217255,53.5017273 C46.9217255,53.9555221 46.9217255,55.3401044 46.9217255,55.9694996 Z M45.9217255,55.8282745 C45.9217255,55.2439268 45.9217255,53.7495901 45.9217255,53.3282745 C45.9217255,52.0782745 44.9217255,52.0782745 44.9217255,53.3282745 C44.9217255,53.6763306 44.9217255,55.4519983 44.9217255,55.8282745 C44.9217255,57.0782745 45.9217255,57.0782745 45.9217255,55.8282745 Z" id="Combined-Shape-Copy" transform="translate(45.421725, 54.500000) rotate(90.000000) translate(-45.421725, -54.500000) "></path>
            <path d="M50.9801855,57.9496851 C50.9801855,60.5526529 47.9801855,60.5526529 47.9801855,57.9496851 C47.9801855,55.3467173 47.9801855,55.8568005 47.9801855,55.4819128 C47.9801855,52.2506424 50.9801855,52.2506424 50.9801855,55.4819128 C50.9801855,55.9357076 50.9801855,57.3202899 50.9801855,57.9496851 Z M49.9801855,57.80846 C49.9801855,57.2241122 49.9801855,55.7297756 49.9801855,55.30846 C49.9801855,54.05846 48.9801855,54.05846 48.9801855,55.30846 C48.9801855,55.656516 48.9801855,57.4321837 48.9801855,57.80846 C48.9801855,59.05846 49.9801855,59.05846 49.9801855,57.80846 Z" id="Combined-Shape-Copy-2" transform="translate(49.480185, 56.480185) scale(1, -1) rotate(45.000000) translate(-49.480185, -56.480185) "></path>
            <path d="M53,58.8842143 C52.9734619,58.906543 51.1246411,65.3416582 47.4535377,78.1895602 C47.2969342,76.7941591 46.6644428,75.9099447 45.5560638,75.5369172 C44.4476848,75.1638897 43.2800085,75.4586278 42.053035,76.4211315 L49.3510117,58.8842143 C49.5627261,58.2947381 50.1465642,58 51.1025261,58 C52.6160831,58 52.9601929,58.9177073 53,58.8842143 Z M46.9947062,79.2110904 C46.9058939,79.655757 45.6950374,80.3935202 43.8247361,79.7306427 C41.9000987,78.9339008 41.9059778,77.3134458 42.0585272,77.0005615 C42.3465372,76.4302896 43.8912812,75.3087581 45.5760117,75.982993 C47.2348069,76.6479435 47.2294243,78.3279578 46.9947062,79.2110904 Z" id="Combined-Shape"></path>
            <path d="M16.556039,49 L20.8063109,49 L20.8063109,74.2655053 L16.556039,74.2655053 L13.2502719,63.1675731 L13.2502719,74.2655053 L9,74.2655053 L9,49 L13.2502719,49 L16.556039,59.3895536 L16.556039,49 Z M30.5676928,54.9946766 L34.8179647,54.9946766 L34.8179647,71.5235119 C34.8565571,72.328685 34.5977533,72.9546289 34.1095861,73.4125216 C33.5625229,74.0139345 32.9305603,74.2787569 32.2205763,74.3570265 L25.6090422,74.3570265 C24.9376506,74.2787569 24.305688,74.0139345 23.7200325,73.4125216 C23.2704576,72.9546289 23.0116538,72.328685 23.0116538,71.5235119 L23.0116538,54.9946766 L27.2619257,54.9946766 L27.2619257,69.8706284 L30.5676928,69.8706284 L30.5676928,54.9946766 Z M59.6904257,69.8947034 L59.6904257,55.0187516 L63.9406977,55.0187516 L63.9406977,71.5475869 C64.051515,72.3407226 63.7866926,72.9787039 63.232319,73.4365966 C62.727387,74.0380095 62.0894057,74.3028319 61.3433093,74.3811015 L54.7317752,74.3811015 C54.0603836,74.3028319 53.428421,74.0380095 52.8427654,73.4365966 C52.3931905,72.9787039 52.1343868,72.3407226 52.1343868,71.5475869 L52.1343868,66.3528101 L56.6207849,65.4083052 L56.6207849,69.8947034 L59.6904257,69.8947034 Z M72.7471043,54.9946766 L76.9973762,54.9946766 L76.9973762,71.5235119 C77.0359686,72.328685 76.7771648,72.9546289 76.2889976,73.4125216 C75.7419344,74.0139345 75.1099718,74.2787569 74.3999878,74.3570265 L67.7884537,74.3570265 C67.1170621,74.2787569 66.4850995,74.0139345 65.899444,73.4125216 C65.4498691,72.9546289 65.1910653,72.328685 65.1910653,71.5235119 L65.1910653,54.9946766 L69.4413373,54.9946766 L69.4413373,69.8706284 L72.7471043,69.8706284 L72.7471043,54.9946766 Z M86.7948706,69.8706284 L86.7948706,66.5648613 L91.0451426,65.3842302 L91.0451426,71.5235119 C91.0837349,72.3527601 90.8249312,72.9847227 90.3367639,73.4125216 C89.7897007,74.0199532 89.1577381,74.2787569 88.4477542,74.3570265 L81.8362201,74.3570265 C81.1648285,74.2787569 80.5328659,74.0199532 79.9472103,73.4125216 C79.4976354,72.9847227 79.2388317,72.3527601 79.2388317,71.5235119 L79.2388317,57.592065 C79.2388317,56.9206734 79.4976354,56.2887108 79.9472103,55.7030553 C80.5328659,55.2534804 81.1648285,54.9946766 81.8362201,54.9946766 L88.4477542,54.9946766 C89.1577381,54.9946766 89.7897007,55.2534804 90.3367639,55.7030553 C90.8249312,56.2887108 91.0837349,56.9206734 91.0451426,57.592065 L91.0451426,61.3700845 L86.7948706,62.3145894 L86.7948706,59.2449486 L83.4891036,59.2449486 L83.4891036,69.8706284 L86.7948706,69.8706284 Z M101.514903,64.6758516 L105.765175,74.3570265 L101.278777,74.3570265 L97.9730098,66.8009875 L97.5007574,66.8009875 L97.5007574,74.3570265 L93.2504855,74.3570265 L93.2504855,54.9946766 L97.5007574,54.9946766 L97.5007574,62.5507156 L97.9730098,62.5507156 L101.278777,54.9946766 L105.765175,54.9946766 L101.514903,64.6758516 Z M111.440186,62.5507156 L116.398837,62.5507156 C117.108821,62.4338537 117.740783,62.6926574 118.287847,63.2590943 C118.776014,63.7278879 119.034818,64.3598505 118.996225,65.148104 L118.996225,71.5235119 C119.034818,72.328685 118.776014,72.9546289 118.287847,73.4125216 C117.740783,74.0139345 117.108821,74.2787569 116.398837,74.3570265 L109.787303,74.3570265 C109.115911,74.2787569 108.483948,74.0139345 107.898293,73.4125216 C107.448718,72.9546289 107.189914,72.328685 107.189914,71.5235119 L107.189914,69.3983759 L111.440186,68.4538711 L111.440186,69.8706284 L114.745953,69.8706284 L114.745953,66.8009875 L109.787303,66.8009875 C109.115911,66.7673548 108.483948,66.5085511 107.898293,66.0926089 C107.448718,65.4733207 107.189914,64.8413581 107.189914,64.2035991 L107.189914,57.592065 C107.189914,56.908636 107.448718,56.2887108 107.898293,55.7030553 C108.483948,55.2534804 109.115911,54.9946766 109.787303,54.9946766 L116.398837,54.9946766 C117.108821,54.9946766 117.740783,55.2534804 118.287847,55.7030553 C118.776014,56.2887108 119.034818,56.908636 118.996225,57.592065 L118.996225,59.717201 L114.745953,60.8978321 L114.745953,59.2449486 L111.440186,59.2449486 L111.440186,62.5507156 Z" id="Nunjucks"></path>
        </g>
    </g>
</svg>