<?xml version="1.0" encoding="UTF-8"?>
<svg width="128px" height="128px" viewBox="0 0 128 128" version="1.1" xmlns="http://www.w3.org/2000/svg" xmlns:xlink="http://www.w3.org/1999/xlink">
    <!-- Generator: Sketch 51 (57462) - http://www.bohemiancoding.com/sketch -->
    <title>Sass Logo</title>
    <desc>Created with Sketch.</desc>
    <defs></defs>
    <g id="Colophon" stroke="none" stroke-width="1" fill="none" fill-rule="evenodd">
        <g id="Sass-Logo" fill="#CF649A" fill-rule="nonzero">
            <g id="logo-b6e1ef6e" transform="translate(13.000000, 26.000000)">
                <path d="M88.6673375,44.2155639 C85.0660466,44.2356291 81.9476103,45.0984329 79.3321475,46.3826061 C78.3664382,44.4764116 77.4007289,42.8109995 77.2397774,41.5669568 C77.0587069,40.1222621 76.8373985,39.239393 77.0587069,37.5137854 C77.2800153,35.7881777 78.2859625,33.3402227 78.2859625,33.1395707 C78.2658435,32.9589838 78.0646541,32.0761148 75.9924029,32.0560496 C73.9201516,32.0359844 72.1295656,32.4573537 71.9283762,32.9991142 C71.7271867,33.5408748 71.3248079,34.7849175 71.0632616,36.0690906 C70.7011206,37.9552199 66.9187591,44.6369332 64.7660321,48.1483441 C64.0618691,46.7839102 63.4583008,45.5799979 63.3375871,44.616868 C63.1565166,43.1721732 62.9352082,42.2893042 63.1565166,40.5636966 C63.377825,38.8380889 64.3837722,36.3901339 64.3837722,36.1894818 C64.3636533,36.008895 64.1624638,35.126026 62.0902126,35.1059608 C60.0179614,35.0858956 58.2273753,35.5072649 58.0261859,36.0490254 C57.8249965,36.5907859 57.6036881,37.8749591 57.1610713,39.1190018 C56.7385735,40.3630445 51.7088375,51.5192986 50.4011062,54.4287533 C49.737181,55.9135785 49.1537316,57.0974256 48.7312338,57.9000338 C48.308736,58.702642 48.7111149,57.9602294 48.670877,58.0404903 C48.308736,58.7227072 48.1075465,59.1039461 48.1075465,59.1039461 L48.1075465,59.1240113 C47.8258813,59.6256415 47.5240972,60.1072064 47.3832646,60.1072064 C47.2826698,60.1072064 47.0814804,58.7628376 47.4235025,56.9168388 C48.1679034,53.0442542 49.9786083,47.0046274 49.9584894,46.7839102 C49.9584894,46.6835841 50.3005114,45.6201283 48.7915906,45.0783677 C47.3229077,44.5366072 46.7998152,45.4395414 46.6791015,45.4395414 C46.5583879,45.4395414 46.4577931,45.7605847 46.4577931,45.7605847 C46.4577931,45.7605847 48.0874276,38.9584802 43.3393568,38.9584802 C40.3617531,38.9584802 36.2574886,42.1889782 34.2254752,45.1385633 C32.9378628,45.8408455 30.2016864,47.3256707 27.3045585,48.9108219 C26.1980166,49.5127781 25.0512368,50.1548646 23.9648138,50.7367556 L23.7435054,50.4959731 C17.9894875,44.3760855 7.34656611,40.0420012 7.78918288,31.8152671 C7.95013443,28.8255515 8.99631951,20.9399259 28.2300299,11.3888883 C43.983163,3.56345824 56.5977409,5.71043519 58.7907058,10.485954 C61.9091421,17.3081238 52.0508596,29.9893334 35.6740392,31.8152671 C29.4371666,32.5175493 26.1577787,30.1097247 25.332902,29.2067904 C24.4677874,28.2637258 24.3470737,28.2235954 24.0251706,28.4041822 C23.5020781,28.6850951 23.8239812,29.5278337 24.0251706,30.0294639 C24.5080253,31.2935718 26.5199197,33.5408748 29.9401402,34.6645262 C32.9378628,35.6477213 40.2611584,36.1894818 49.1134937,32.778397 C59.0321331,28.9459428 66.7779265,18.311384 64.5044859,9.42249815 C62.1908073,0.37309062 47.1418372,-2.59655974 32.9177439,2.43980675 C24.4476685,5.44958753 15.27343,10.1448455 8.67441641,16.3048635 C0.828028273,23.6085982 -0.419346251,29.9893334 0.103746291,32.6379405 C1.93457019,42.0886522 14.9917648,48.2486701 20.2226902,52.8034717 C19.961144,52.9439282 19.7197166,53.0843846 19.4984083,53.2047758 C16.8829455,54.4889489 6.92406829,59.6858371 4.42931924,65.1837033 C1.61266709,71.4039169 4.87193601,75.8784577 7.04478195,76.4804138 C13.7645092,78.3464779 20.6451881,74.9955886 24.3671927,69.4776572 C28.0690784,63.9597258 27.6264616,56.7964475 25.9163514,53.5258191 L25.8559945,53.4054279 L27.9081268,52.2015156 C29.2359771,51.4189726 30.5437085,50.6966252 31.6904883,50.0746038 C31.0466821,51.8202767 30.5839464,53.8869928 30.342519,56.8967736 C30.0608538,60.4282497 31.5094178,65.0031165 33.4207175,66.8089849 C34.2657131,67.5915279 35.2716603,67.6115931 35.8953476,67.6115931 C38.1084314,67.6115931 39.1143786,65.7856595 40.2209205,63.5985521 C41.5890087,60.9298798 42.7961453,57.8398382 42.7961453,57.8398382 C42.7961453,57.8398382 41.2872245,66.2070288 45.4116081,66.2070288 C46.9205289,66.2070288 48.4294496,64.2607039 49.1134937,63.2574436 L49.1134937,63.2775088 C49.1134937,63.2775088 49.1537316,63.2173132 49.2342074,63.0768568 C49.395159,62.8360743 49.4756347,62.6956179 49.4756347,62.6956179 L49.4756347,62.6554875 C50.0792031,61.6120968 51.4271723,59.2243374 53.4390667,55.271492 C56.0344105,50.1749298 58.5291595,43.7941946 58.5291595,43.7941946 C58.5291595,43.7941946 58.7705868,45.3592806 59.5149878,47.9276269 C59.9576045,49.4525825 60.9233138,51.1179945 61.6677148,52.7432761 C61.0641464,53.5860147 60.7020055,54.0675796 60.7020055,54.0675796 L60.7221244,54.0876448 C60.2392697,54.7297314 59.6960583,55.4119484 59.1327278,56.0941654 C57.0805955,58.5421204 54.6260844,61.3311839 54.3041813,62.1337921 C53.9219213,63.0768568 54.0023971,63.7791389 54.746798,64.3409647 C55.2900095,64.7422688 56.2557188,64.8225296 57.281785,64.7422688 C59.1327278,64.6218776 60.4203402,64.1603778 61.0641464,63.879465 C62.0700936,63.5182913 63.2168734,62.9765307 64.3234154,62.1739225 C66.3353098,60.6890973 67.5625653,58.5822508 67.4418517,55.7731221 C67.3814948,54.2281013 66.8785212,52.7031457 66.254834,51.2584509 C66.4359045,50.9976033 66.616975,50.7367556 66.7980455,50.4558427 C69.9768386,45.8207803 72.4313498,40.7242182 72.4313498,40.7242182 C72.4313498,40.7242182 72.6727771,42.2893042 73.417178,44.8576505 C73.799438,46.1618888 74.5639578,47.5865184 75.2480019,48.9910827 C72.2703982,51.4189726 70.3993364,54.2281013 69.7555302,56.0741002 C68.5685125,59.485185 69.493984,61.0302058 71.2443321,61.3913795 C72.0289709,61.5519012 73.1556318,61.1907275 74.0006274,60.8295538 C75.0468125,60.4884453 76.314306,59.9065543 77.4812047,59.0437505 C79.4930991,57.5589253 81.4245177,55.4922092 81.323923,52.7031457 C81.2635662,51.4189726 80.9215441,50.1548646 80.4588084,48.9509523 C82.9937953,47.9075617 86.2731832,47.3056055 90.4378046,47.8072356 C99.3907347,48.8506263 101.161202,54.4287533 100.81918,56.7563171 C100.477158,59.0838809 98.6060958,60.3680541 97.9824086,60.7693582 C97.3587213,61.1505971 97.1575319,61.2910535 97.2178887,61.5719664 C97.2983645,61.9933357 97.5800297,61.9732705 98.1232412,61.8930097 C98.8676421,61.7726184 102.831074,59.9868152 102.992026,55.6928613 C103.233453,50.1749298 97.9824086,44.1553683 88.6673375,44.2155639 Z M19.6191219,67.4310063 C16.6616372,70.6615043 12.4970158,71.8854818 10.7265487,70.8420912 C8.81524902,69.7385049 9.55964995,64.9830513 13.2011788,61.5519012 C15.4142626,59.4651198 18.2912716,57.5388601 20.1824523,56.355013 C20.6049502,56.0941654 21.2487564,55.7129265 22.0132762,55.2514267 C22.1339899,55.1711659 22.2144657,55.1310355 22.2144657,55.1310355 C22.3552983,55.0507747 22.5162498,54.9504487 22.6772014,54.8501226 C24.0251706,59.7460327 22.7375582,64.0399866 19.6191219,67.4310063 Z M41.2469867,52.7633413 C40.2209205,55.271492 38.0480746,61.7124228 36.7403432,61.3512491 C35.6136824,61.050271 34.9296383,56.1744262 36.5190348,51.3587769 C37.3237926,48.9308871 39.0339028,46.0414976 40.03985,44.9178461 C41.6694845,43.1119776 43.4399515,42.5100215 43.8825683,43.2524341 C44.4056609,44.2155639 41.8907929,51.1982553 41.2469867,52.7633413 Z M59.0924899,61.2709883 C58.6498732,61.4917056 58.2474943,61.6522272 58.0664238,61.531836 C57.9255912,61.4515751 58.2474943,61.1505971 58.2474943,61.1505971 C58.2474943,61.1505971 60.4806971,58.7628376 61.3659306,57.6592514 C61.8689042,57.0171648 62.4724725,56.2747522 63.1162787,55.4320136 L63.1162787,55.6727961 C63.1162787,58.5621856 60.3398645,60.4884453 59.0924899,61.2709883 Z M72.8538476,58.1408163 C72.5319445,57.9000338 72.5721824,57.1576212 73.6586054,54.8300574 C74.0811032,53.907058 75.0468125,52.3620372 76.7166848,50.8972772 C76.9178743,51.4992334 77.0385879,52.0811243 77.018469,52.6228849 C76.9983501,56.2346218 74.4231252,57.5789905 72.8538476,58.1408163 Z" id="Shape"></path>
            </g>
        </g>
    </g>
</svg>