<?xml version="1.0" encoding="UTF-8"?>
<svg width="128px" height="128px" viewBox="0 0 128 128" version="1.1" xmlns="http://www.w3.org/2000/svg" xmlns:xlink="http://www.w3.org/1999/xlink">
    <!-- Generator: Sketch 51 (57462) - http://www.bohemiancoding.com/sketch -->
    <title>Sketch Logo</title>
    <desc>Created with Sketch.</desc>
    <defs></defs>
    <g id="Colophon" stroke="none" stroke-width="1" fill="none" fill-rule="evenodd">
        <g id="Sketch-Logo" fill-rule="nonzero">
            <g id="Sketch" transform="translate(20.000000, 24.000000)">
                <g id="Base" fill="#FFAE00">
                    <polygon id="Polygon" transform="translate(44.000000, 39.813765) rotate(-180.000000) translate(-44.000000, -39.813765) " points="44 -2.84217094e-14 88 51.1255061 68.9392713 76.9554656 44 79.6275304 19.0607287 76.9554656 2.84217094e-14 51.1255061"></polygon>
                </g>
                <g id="Bottom-Back" transform="translate(0.000000, 28.502024)" fill="#EC6C00">
                    <polygon id="Polygon" transform="translate(44.000000, 25.562753) rotate(-180.000000) translate(-44.000000, -25.562753) " points="44 -2.84217094e-14 88 51.1255061 2.84217094e-14 51.1255061"></polygon>
                </g>
                <g id="Bottom-Mid" transform="translate(17.813765, 28.502024)" fill="#FFAE00">
                    <polygon id="Polygon" transform="translate(26.186235, 25.562753) rotate(-180.000000) translate(-26.186235, -25.562753) " points="26.1862348 -2.84217094e-14 52.3724696 51.1255061 2.84217094e-14 51.1255061"></polygon>
                </g>
                <g id="Top-Mid" transform="translate(17.813765, 0.000000)" fill="#FFEFB4">
                    <polygon id="Polygon" transform="translate(26.186235, 14.251012) rotate(-180.000000) translate(-26.186235, -14.251012) " points="26.1862348 28.5020243 52.3724696 4.78638272e-13 0 -1.42108547e-14"></polygon>
                </g>
                <g id="Top-Side-Left" transform="translate(0.000000, 2.672065)" fill="#FFAE00">
                    <polygon id="Polygon" transform="translate(9.530364, 12.914980) rotate(-180.000000) translate(-9.530364, -12.914980) " points="7.10542736e-15 25.8299595 9.79757085 12.8259109 19.0607287 4.75919799e-13 1.06882591 0"></polygon>
                </g>
                <g id="Top-Side-Right" transform="translate(78.469636, 15.587045) scale(-1, 1) translate(-78.469636, -15.587045) translate(68.939271, 2.672065)" fill="#FFAE00">
                    <polygon id="Polygon" transform="translate(9.530364, 12.914980) rotate(-180.000000) translate(-9.530364, -12.914980) " points="7.10542736e-15 25.8299595 9.79757085 12.8259109 19.0607287 4.75919799e-13 1.06882591 0"></polygon>
                </g>
                <g id="Top-Left" transform="translate(17.813765, 0.000000)" fill="#FED305">
                    <polygon id="Polygon" transform="translate(13.093117, 14.251012) rotate(-180.000000) translate(-13.093117, -14.251012) " points="24.9392713 25.8299595 26.1862348 -1.42108547e-14 1.42108547e-14 28.5020243"></polygon>
                </g>
                <g id="Top-Right" transform="translate(44.000000, 0.000000)" fill="#FED305">
                    <polygon id="Polygon" transform="translate(13.093117, 14.251012) scale(-1, 1) rotate(-180.000000) translate(-13.093117, -14.251012) " points="24.9392713 25.8299595 26.1862348 -1.42108547e-14 -1.42108547e-14 28.5020243"></polygon>
                </g>
            </g>
        </g>
    </g>
</svg>