<?xml version="1.0" encoding="UTF-8"?>
<svg width="128px" height="128px" viewBox="0 0 128 128" version="1.1" xmlns="http://www.w3.org/2000/svg" xmlns:xlink="http://www.w3.org/1999/xlink">
    <!-- Generator: Sketch 51 (57462) - http://www.bohemiancoding.com/sketch -->
    <title>Tachyons Logo</title>
    <desc>Created with Sketch.</desc>
    <defs></defs>
    <g id="Colophon" stroke="none" stroke-width="1" fill="none" fill-rule="evenodd">
        <g id="Tachyons-Logo" fill="#000000" fill-rule="nonzero">
            <g id="logo-script" transform="translate(8.000000, 42.000000)">
                <path d="M52.6541772,0.0141772152 L52.1523038,0.0340253165 C51.692962,0.0538734177 51.1570633,1.0803038 50.7912911,1.92243038 C48.8802025,6.32870886 47.0456709,10.7860253 44.6100253,14.9257722 C42.1743797,19.065519 37.7340759,25.9613165 35.4940759,24.9490633 C34.643443,24.614481 34.7908861,23.7156456 34.9751899,22.8253165 C35.1370975,22.0551697 35.3774746,21.303635 35.692557,20.582481 C36.0243038,19.7318481 36.736,17.6534684 37.6121519,17.4237975 C38.4883038,17.1941266 38.5875443,17.523038 39.3332658,17.5428861 C39.7358987,17.5428861 40.1498734,16.9134177 40.2547848,16.6922532 C40.7453165,15.5580759 39.7047089,14.9229367 38.5847089,14.5203038 C38.1074737,14.3066809 37.5778145,14.2386241 37.0620759,14.3246582 C36.4949873,14.4692658 36.0753418,14.9286076 35.6897215,15.3681013 C33.1151392,18.2971139 28.7655696,25.4934684 27.5945316,25.7571646 C27.328,23.4094177 28.972557,19.8792911 29.4744304,17.7442025 C29.6473924,17.0069873 30.1265823,15.6913418 29.7324557,15.0448608 C29.4999494,14.6649114 28.7939241,14.9002532 28.4196456,14.6620759 C27.3223291,13.9673924 26.1144304,13.2443544 24.8243038,13.3861266 C23.8574177,13.4938734 23.0152911,14.0779747 22.2553924,14.6819241 C19.1364051,17.1657722 16.3973671,20.7157468 16.5277975,24.7108861 C16.5540675,25.0692945 16.6225932,25.4233437 16.7319494,25.7656709 C16.6468861,26.1229367 15.5495696,28.3799494 15.3681013,28.697519 C13.9503797,31.2040506 11.9967595,33.3107848 11.0156962,32.7408608 C9.83898734,31.4875949 10.7605063,27.9206076 11.1546329,26.1597975 C11.9315443,22.6069873 12.4334177,21.7705316 13.4683544,18.3027848 C13.8171139,17.1345823 14.6308861,15.2858734 15.0193418,14.1290127 C15.1696203,13.6810127 15.2773671,12.8927595 15.6885063,12.6063797 C16.0996456,12.32 16.774481,12.3228354 17.2253165,12.2406076 L18.1723544,12.1356962 C18.8471899,12.0789873 19.5163544,11.9712405 20.1940253,11.9655696 C20.6054272,11.9548488 21.0131615,11.8851425 21.4047595,11.7585823 C21.8253008,11.6540461 22.2512562,11.5726413 22.6807089,11.5147342 C23.0096203,11.4410127 23.5568608,11.3672911 23.891443,11.3332658 L30.412962,10.6641013 C31.3231392,10.5705316 32.2361519,10.476962 33.152,10.4344304 C33.8863797,10.4004051 34.6235949,10.4004051 35.3579747,10.3918987 L36.3163544,10.3748861 C37.3373469,10.3722955 38.3529113,10.2262604 39.3332658,9.94106329 C39.7075443,9.83048101 39.8152911,9.6121519 39.7472405,9.31159494 C39.707097,8.92841369 39.6359783,8.54911412 39.5345823,8.17741772 C39.3502785,7.73508861 37.3994937,7.98177215 36.3673924,8.07534177 L32.8542785,8.40425316 L25.811038,9.03939241 C22.6041519,9.32293671 19.3887595,9.60648101 16.2329114,10.2699747 C16.6412152,9.36546835 17.0608608,8.38440506 16.8652152,7.40901266 C16.8416315,7.29241761 16.8094076,7.17773835 16.7688101,7.06592405 C16.4370633,6.15007595 15.5694177,5.52911392 14.6592405,5.26258228 C13.8965063,5.03858228 14.0014177,5.56313924 13.6951899,6.16992405 C13.5590886,6.45346835 13.4116456,6.70865823 13.292557,6.98653165 L12.6744304,8.38724051 C12.4338872,8.88293636 12.2438983,9.40160621 12.1073418,9.93539241 C12.0932109,10.028164 12.0645021,10.1181182 12.0222785,10.2019241 C11.8727759,10.3840707 11.6411296,10.4780102 11.4069873,10.451443 C9.98926582,10.4797975 8.5715443,10.5875443 7.15382278,10.7349873 C6.42794937,10.8087089 5.70491139,10.8937722 4.98187342,10.9873418 C4.25883544,11.0809114 3.61802532,11.1971646 2.9318481,11.3020759 C2.46116456,11.3757975 1.98764557,11.4325063 1.51412658,11.4636962 C1.23058228,11.4807089 0.947037975,11.4636962 0.663493671,11.4920506 C0.476944576,11.4630251 0.28903303,11.5353819 0.170126582,11.6820253 C-0.260860759,12.0307848 0.331746835,12.768 0.592607595,13.0997468 C1.1596962,13.8284557 1.49711392,13.7093671 2.32222785,13.5902785 C2.88310655,13.4679987 3.45142242,13.3827514 4.02349367,13.3350886 C4.256,13.3350886 4.59058228,13.2500253 4.82308861,13.2301772 C5.05559494,13.2103291 5.22005063,13.1422785 5.46389873,13.1139241 C5.6,13.0969114 6.03098734,13.0798987 6.16141772,13.0798987 L7.53944304,13.0798987 C8.33336709,13.0657215 9.15281013,12.9948354 9.93822785,13.0146835 C10.1140253,13.0146835 10.4032405,12.8644051 10.5053165,13.0770633 C10.5417231,13.3654894 10.5369496,13.6576261 10.4911392,13.9447089 C10.2359494,15.1639494 9.42501266,17.0466835 9.09043038,18.2460759 C8.83524051,19.1647595 8.60556962,20.0862785 8.39007595,21.0163038 C7.57063291,24.5861266 6.81924051,28.0028354 7.15382278,31.6662278 C7.27858228,33.0300759 7.68688608,33.5149367 8.88060759,34.3825823 C9.60364557,34.9071392 10.8143797,35.020557 11.6876962,34.8362532 C13.0710465,34.5232934 14.2396969,33.6035801 14.8690633,32.332557 L17.7697215,26.7042025 C18.444557,27.2911392 19.0995443,27.8383797 20.1231392,27.7476456 C21.1467342,27.6569114 24.9433924,21.8357468 24.9433924,21.8357468 C24.6343291,22.8876962 24.3224304,23.9651646 24.390481,25.0596456 C24.4585316,26.1541266 24.9830886,27.2854684 25.9641519,27.776 C27.1493671,28.371443 28.4111392,27.5831899 29.3411646,26.6418228 C30.2711899,25.7004557 30.8808101,24.5549367 31.609519,23.5625316 C31.6633924,24.7902785 32.3155443,25.4169114 33.1293165,26.1144304 C34.6547848,27.404557 36.5488608,26.905519 38.2104304,25.7968608 C39.872,24.6882025 41.8001013,22.0484051 42.8463797,20.3443038 L40.5780253,28.5926076 C40.396557,29.267443 39.7841013,30.860962 40.3341772,31.3061266 C41.5183511,32.1916205 43.0747024,32.4058464 44.4540759,31.8732152 C45.4067848,31.4932658 45.2423291,30.0642025 45.6336203,29.1143291 C47.0740253,25.6238987 48.3159494,20.2989367 51.3498734,19.4256203 C52.3961519,19.1250633 51.4122532,22.5446076 51.0833418,24.2005063 C50.7997975,25.6182278 50.6183291,28.0878987 51.8630886,29.0803038 C52.6626835,29.715443 53.4310886,29.8713924 54.2476962,29.2617722 C55.948962,27.9943291 57.5623291,25.2552911 58.3023797,23.5029873 C58.2258228,26.1030886 58.6483038,26.8403038 59.9100759,27.5973671 C60.1820894,27.7626781 60.478853,27.8832981 60.7890633,27.9546329 C62.6547848,28.371443 63.7265823,26.9707342 64.6197468,25.6862785 C65.8673418,23.9056203 66.7321519,22.2837468 67.9797468,20.5144304 C67.5601013,24.0587342 66.9221266,28.0878987 66.9221266,28.0878987 C65.8843544,29.5056203 62.8192405,32.4885063 61.7786329,33.900557 C60.5260164,35.6052073 59.6019626,37.528316 59.0537722,39.571443 C58.916571,40.2821199 59.0161733,41.0181808 59.3373165,41.6668354 C59.6053999,42.325719 60.1015692,42.8661711 60.7351899,43.1894684 C61.5858228,43.6941772 62.7767089,44.2641013 63.7832911,44.1705316 C65.5951392,44.0004051 66.8342278,42.2509367 67.4693671,40.5496709 C68.5723544,37.6178228 69.7377215,30.2683544 70.3756962,27.2060759 C70.3756962,27.2060759 71.2972152,25.811038 74.0986329,23.7780253 C73.9625316,24.9887595 73.4152911,26.0804051 73.446481,27.353519 C73.4861772,28.9980759 74.2035443,30.688 75.7687089,31.4620759 C76.0494497,31.6010436 76.3496372,31.6966447 76.659038,31.7456203 C78.5417722,32.0291646 79.5993924,30.7560506 80.4188354,29.4772658 C83.312649,24.9440269 84.5664967,19.5563845 83.9716456,14.2112405 C83.8327089,12.9891646 83.5491646,11.6791899 82.1342785,11.1603038 C81.5633586,10.9573562 80.9440737,10.9336136 80.3592911,11.0922532 C79.0096203,11.4466835 78.0427342,12.5383291 77.3820759,13.7292152 C76.7133988,14.8552091 76.3992072,16.1564366 76.4804051,17.4634937 C76.5578089,17.8318596 76.5578089,18.2122923 76.4804051,18.5806582 C76.3718625,18.8454238 76.2096731,19.0848463 76.0040506,19.2838481 C74.4360506,21.0163038 72.601519,23.3045063 70.7556456,24.7477468 C71.0391899,22.9897722 71.6573165,20.4945823 71.7395443,18.9265823 C71.7962532,17.8576203 71.6488101,17.1515949 70.508962,16.7319494 C70.1516962,16.601519 69.1479494,16.4228861 68.7793418,16.5164557 C67.7500759,16.7829873 67.6876962,17.7555443 67.0440506,18.5267848 C65.5582785,20.3102785 63.0999494,23.8574177 62.5838987,23.8744304 C61.6878987,23.9538228 62.2606582,22.1731646 62.3428861,21.9208101 C62.8882761,20.0750706 63.6207871,18.2898719 64.5290127,16.5930127 C64.6792911,16.3094684 64.8607595,15.9833924 64.7643544,15.6714937 C64.7049178,15.5116815 64.6076245,15.3686605 64.4808101,15.2546835 C63.6074937,14.3785316 61.203038,13.5278987 60.8826329,14.3388354 C60.5622278,15.1497722 60.0490127,16.4540759 59.8193418,17.2394937 C59.8193418,17.2394937 58.8014177,19.04 58.041519,20.1032911 C56.448,22.3291139 52.7137215,29.6842532 52.9235443,26.5113924 L53.7259747,19.7658734 C53.7856835,19.3377122 53.7308968,18.9013749 53.5671899,18.5012658 C52.8753418,16.9049114 50.8933671,17.3670886 49.4756456,17.9568608 L54.0123544,4.19362025 C54.2958987,3.36 55.0416203,1.47443038 54.9168608,0.603949367 C54.8147848,0.0595443038 53.4991392,-0.0396962025 52.6541772,0.0141772152 Z M81.1617215,11.9031899 C81.6904703,12.1804322 82.0798589,12.6653699 82.2363544,13.241519 C82.604962,14.3955443 82.4943797,15.6431392 82.3299241,16.8425316 C81.7032911,21.4161013 80.2543797,26.0435443 77.1353924,29.4489114 C77.0519658,29.5599712 76.9375159,29.6438354 76.806481,29.6899241 C76.1911899,29.715443 76.7100759,27.3762025 76.8546835,26.6701772 C77.0016727,26.0381141 77.1911324,25.4166865 77.4217722,24.8101266 L79.2818228,19.4993418 C79.4080581,19.2216903 79.4551568,18.9145681 79.4179241,18.6118481 C79.2676456,17.9370127 78.4170127,17.7413671 77.7166582,17.6591392 C77.5246677,17.658958 77.3396475,17.5871742 77.1977722,17.4578228 C77.0954161,17.3023882 77.0558921,17.1138891 77.0871899,16.9304304 C77.2246821,14.9996097 78.2432805,13.2395468 79.8489114,12.1583797 C80.0786781,11.9872427 80.3460206,11.8735007 80.6286582,11.8266329 C80.8099657,11.8063682 80.9934452,11.832719 81.1617215,11.9031899 Z M25.8564051,16.3661772 C26.2023291,16.3463291 26.0208608,16.7631392 26.0407089,16.748962 C25.5048101,18.1666835 24.4443544,19.5447089 23.4349367,20.9028861 C22.9415696,21.5663797 22.4850633,22.2922532 21.9803544,22.9472405 C21.4756456,23.6022278 20.7270886,25.062481 19.9756962,25.5246582 C18.5579747,24.9207089 19.7743797,22.8394937 20.1514937,22.2242025 L20.8943797,21.0077975 C21.4926582,20.0267342 22.099443,19.0229873 22.9472405,18.2574177 C23.4292658,17.8150886 23.8857722,17.2054684 24.4301772,16.8396962 C24.8603771,16.5690088 25.349735,16.4065381 25.8564051,16.3661772 Z M66.5960506,30.8184304 L65.8248101,34.7880506 C65.6603544,35.6386835 65.484557,36.1263797 65.3115949,36.7955443 L64.8579241,38.553519 C64.7456177,39.1547952 64.5100594,39.7263136 64.1660759,40.2321013 C63.9619241,40.4901266 62.7483544,41.6498228 61.798481,41.2330127 C61.2420704,41.0608368 60.9205626,40.4803713 61.0697722,39.9173671 C61.2824304,38.5591899 62.0026329,37.0592405 62.572557,35.9477468 C63.590481,34.0196456 65.1783291,32.4714937 66.5960506,30.8184304 Z" id="Shape"></path>
                <path d="M88.7125063,14.1403544 L88.6898228,14.1403544 C88.2871899,14.2877975 88.083038,14.7244557 87.9214177,15.1242532 C87.0745654,17.2205907 86.2900928,19.3396118 85.568,21.4813165 C85.2069536,22.5512236 84.8610295,23.6268017 84.5302278,24.7080506 C84.3657722,25.2486751 84.205097,25.7902447 84.0482025,26.3327595 C83.9461266,26.6871899 83.8894177,26.9508861 83.7646582,27.4073924 C83.6398987,27.8638987 83.5916962,28.0198481 83.5094684,28.3260759 C83.2627848,29.2390886 82.88,30.4299747 83.8412152,31.0792911 C84.1943041,31.2940032 84.5762074,31.4572668 84.9753924,31.5641519 C85.1870996,31.6414089 85.391967,31.7362549 85.5878481,31.8476962 C86.0245063,32.0858734 86.4923544,32.2730127 87.0991392,32.0008101 C87.3038834,31.8979728 87.4853208,31.754174 87.6322025,31.5783291 C88.1369114,31.0112405 88.2871899,30.3619241 88.6501266,29.7352911 L89.9118987,27.5605063 C90.7370127,26.1427848 91.5621266,24.7250633 92.4382785,23.3243544 C92.7218228,22.8763544 93.107443,22.1334684 93.4221772,21.7081519 C93.7879494,21.2147848 94.1537215,20.7015696 94.7037975,20.0437468 C94.9087406,19.8218466 95.173716,19.6642404 95.4665316,19.5900759 C95.9740759,19.564557 95.5997975,20.6703797 95.5204051,20.8716962 C95.2793924,21.478481 95.2113418,21.8357468 94.9533165,22.6041519 C94.7758781,23.138066 94.628208,23.6814163 94.5109873,24.2316962 C94.4215449,24.6809397 94.3618707,25.1356001 94.3323544,25.5927089 C94.3011646,26.0690633 94.304,26.5482532 94.3068354,27.027443 C94.2732067,27.5152484 94.3487611,28.0044149 94.528,28.4593418 C94.7448241,28.9228142 95.0877662,29.315871 95.5175696,29.593519 C95.9707098,29.9065528 96.4993898,30.0925698 97.0487089,30.1322532 C98.3019747,30.1577722 99.3170633,29.1086582 100.099646,28.2551899 L101.676152,26.5255696 C102.592,25.5218228 103.507848,24.5152405 104.349975,23.4491139 C105.260152,22.2979241 106.085266,21.0786835 107.035139,19.9586835 C107.498377,19.4027663 108.004649,18.8841694 108.549266,18.4076962 C108.872506,18.1241519 109.794025,17.3387342 109.992506,17.7838987 C109.983138,18.0653348 109.948021,18.3453221 109.887595,18.6203544 C109.830886,19.1080506 109.725975,19.5957468 109.623899,20.0749367 C109.425418,21.004962 109.173063,21.9208101 108.923544,22.8366582 C108.821468,23.2052658 108.688203,23.6617722 108.688203,23.6617722 C108.688203,23.6617722 108.121114,23.7638481 107.792203,23.8290633 C107.500078,23.8868852 107.219421,23.9922513 106.961418,24.140962 C105.547882,25.0009787 104.711209,26.5592962 104.775291,28.2126582 C104.785188,28.5393961 104.852368,28.8618598 104.973772,29.1653671 C105.411702,30.1179933 106.484907,30.6019637 107.48881,30.2995443 C107.967779,30.1146834 108.39006,29.8077476 108.713722,29.4092152 C109.677772,28.3090633 110.131443,26.8573165 110.514228,25.4395949 C111.029333,23.489827 111.42701,21.5109139 111.705114,19.513519 C111.86957,18.3339747 112.314734,16.2726076 110.616304,16.0230886 C109.884759,15.9153418 109.158886,16.2272405 108.518076,16.5901772 C108.04153,16.8677807 107.588266,17.1835484 107.162734,17.5343797 C106.423019,18.1746825 105.730328,18.8673735 105.090025,19.6070886 L103.522025,21.3764051 L97.388962,28.1389367 C97.1252658,28.0850633 97.0600506,27.7448101 97.0628861,27.475443 C97.1054177,24.9689114 98.2934684,22.5389367 98.0382785,20.0437468 C98.0159307,19.4417537 97.7865909,18.8659004 97.388962,18.4133671 C96.7963544,17.8321013 95.8266329,17.7952405 95.0553924,18.1014684 C94.2841519,18.4076962 93.6660253,18.9974684 93.0705823,19.5730633 C92.0980253,20.5059241 90.8475949,22.3546329 89.875038,23.2903291 C90.4251139,21.2431392 91.2530633,18.2829367 91.8031392,16.2357468 C91.9590886,15.6686582 92.0583291,14.9115949 91.564962,14.5713418 C91.3768763,14.4613838 91.1667219,14.3945605 90.9496709,14.3756962 L89.4667342,14.1403544 C89.2188946,14.0804389 88.9603459,14.0804389 88.7125063,14.1403544 Z M108.560608,24.2118481 L108.512405,24.4953924 C108.477214,24.6717197 108.428877,24.845166 108.367797,25.0142785 C108.302582,25.2070886 108.226025,25.3970633 108.143797,25.5813671 C108.009743,25.8920984 107.858279,26.1950262 107.690127,26.4887089 C107.605063,26.6361519 107.511494,26.7722532 107.406582,26.9140253 C107.346999,27.0345961 107.246504,27.1300665 107.123038,27.1833924 C106.992334,27.219925 106.852036,27.1914435 106.745924,27.1068354 C106.645482,27.0200977 106.581651,26.8985131 106.567291,26.7665823 C106.553899,26.6351729 106.565443,26.5024165 106.601316,26.3752911 C106.747502,25.8582615 106.979452,25.3694426 107.287494,24.9292152 C107.409748,24.7478805 107.560005,24.5870961 107.732658,24.4528608 C107.887889,24.3229863 108.07656,24.2394597 108.277063,24.2118481 C108.359291,24.2118481 108.560608,24.2118481 108.560608,24.2118481 Z" id="Shape"></path>
                <path d="M52.4116448,20.424 C52.2816448,20.464 52.2716448,20.579 52.4116448,20.574 C52.4672144,20.565767 52.5135259,20.527174 52.5316448,20.474 C52.5388526,20.4444329 52.5388526,20.4135671 52.5316448,20.384 L52.4066448,20.424 L52.4116448,20.424 Z" id="Shape"></path>
            </g>
        </g>
    </g>
</svg>